<?plantuml 1.2026.2?><svg xmlns="http://www.w3.org/2000/svg" xmlns:xlink="http://www.w3.org/1999/xlink" contentStyleType="text/css" data-diagram-type="SEQUENCE" height="897px" preserveAspectRatio="none" style="width:1131px;height:897px;background:#FFFFFF;" version="1.1" viewBox="0 0 1131 897" width="1131px" zoomAndPan="magnify"><title>UC07 - T&#7841;o y&#234;u c&#7847;u &#273;i ch&#7907;</title><defs/><g><text fill="#000000" font-family="sans-serif" font-size="14" font-weight="bold" lengthAdjust="spacing" textLength="193.1699" x="470.3896" y="28.5352">UC07 - T&#7841;o y&#234;u c&#7847;u &#273;i ch&#7907;</text><rect fill="none" height="474.8789" style="stroke:#B7791F;stroke-width:1.5;" width="1114.9492" x="10" y="324.8398"/><rect fill="none" height="340.6816" style="stroke:#B7791F;stroke-width:1.5;" width="1094.9492" x="20" y="452.0371"/><g class="participant-lifeline" data-entity-uid="part1" data-qualified-name="Requester" id="part1-lifeline"><g><title>Ng..i ..ng y.u c.u</title><rect fill="#000000" fill-opacity="0.00000" height="697.7422" width="8" x="97.3286" y="118.9766"/><line style="stroke:#5E806C;stroke-width:0.5;stroke-dasharray:5,5;" x1="101" x2="101" y1="118.9766" y2="816.7188"/></g></g><g class="participant-lifeline" data-entity-uid="part2" data-qualified-name="UI" id="part2-lifeline"><g><title>Giao di.n .ng d.ng</title><rect fill="#000000" fill-opacity="0.00000" height="697.7422" width="8" x="373.8521" y="118.9766"/><line style="stroke:#5E806C;stroke-width:0.5;stroke-dasharray:5,5;" x1="377.395" x2="377.395" y1="118.9766" y2="816.7188"/></g></g><g class="participant-lifeline" data-entity-uid="part3" data-qualified-name="RequestService" id="part3-lifeline"><g><title>REST API</title><rect fill="#000000" fill-opacity="0.00000" height="697.7422" width="8" x="567.9639" y="118.9766"/><line style="stroke:#5E806C;stroke-width:0.5;stroke-dasharray:5,5;" x1="571.3164" x2="571.3164" y1="118.9766" y2="816.7188"/></g></g><g class="participant-lifeline" data-entity-uid="part4" data-qualified-name="MapService" id="part4-lifeline"><g><title>D.ch v. b.n ..</title><rect fill="#000000" fill-opacity="0.00000" height="697.7422" width="8" x="794.271" y="118.9766"/><line style="stroke:#5E806C;stroke-width:0.5;stroke-dasharray:5,5;" x1="798.1416" x2="798.1416" y1="118.9766" y2="816.7188"/></g></g><g class="participant-lifeline" data-entity-uid="part5" data-qualified-name="DB" id="part5-lifeline"><g><title>C. s. d. li.u</title><rect fill="#000000" fill-opacity="0.00000" height="697.7422" width="8" x="911.3242" y="118.9766"/><line style="stroke:#5E806C;stroke-width:0.5;stroke-dasharray:5,5;" x1="914.4004" x2="914.4004" y1="118.9766" y2="816.7188"/></g></g><g class="participant-lifeline" data-entity-uid="part6" data-qualified-name="NotificationService" id="part6-lifeline"><g><title>D.ch v. th.ng b.o</title><rect fill="#000000" fill-opacity="0.00000" height="697.7422" width="8" x="1035.5986" y="118.9766"/><line style="stroke:#5E806C;stroke-width:0.5;stroke-dasharray:5,5;" x1="1039.248" x2="1039.248" y1="118.9766" y2="816.7188"/></g></g><g class="participant participant-head" data-entity-uid="part1" data-qualified-name="Requester" id="part1-head"><text fill="#18392A" font-family="sans-serif" font-size="14" lengthAdjust="spacing" textLength="136.6572" x="30" y="116.0234">Ng&#432;&#7901;i &#273;&#259;ng y&#234;u c&#7847;u</text><ellipse cx="101.3286" cy="50.9883" fill="#E2E2F0" rx="8" ry="8" style="stroke:#2E7D4F;stroke-width:0.5;"/><path d="M101.3286,58.9883 L101.3286,85.9883 M88.3286,66.9883 L114.3286,66.9883 M101.3286,85.9883 L88.3286,100.9883 M101.3286,85.9883 L114.3286,100.9883" fill="none" style="stroke:#2E7D4F;stroke-width:0.5;"/></g><g class="participant participant-tail" data-entity-uid="part1" data-qualified-name="Requester" id="part1-tail"><text fill="#18392A" font-family="sans-serif" font-size="14" lengthAdjust="spacing" textLength="136.6572" x="30" y="829.2539">Ng&#432;&#7901;i &#273;&#259;ng y&#234;u c&#7847;u</text><ellipse cx="101.3286" cy="840.707" fill="#E2E2F0" rx="8" ry="8" style="stroke:#2E7D4F;stroke-width:0.5;"/><path d="M101.3286,848.707 L101.3286,875.707 M88.3286,856.707 L114.3286,856.707 M101.3286,875.707 L88.3286,890.707 M101.3286,875.707 L114.3286,890.707" fill="none" style="stroke:#2E7D4F;stroke-width:0.5;"/></g><g class="participant participant-head" data-entity-uid="part2" data-qualified-name="UI" id="part2-head"><text fill="#000000" font-family="sans-serif" font-size="14" lengthAdjust="spacing" textLength="134.9141" x="307.395" y="116.0234">Giao di&#7879;n &#7913;ng d&#7909;ng</text><path d="M357.3521,74.4883 L357.3521,98.4883 M357.3521,86.4883 L374.3521,86.4883" fill="none" style="stroke:#181818;stroke-width:0.5;"/><ellipse cx="386.3521" cy="86.4883" fill="#E2E2F0" rx="12" ry="12" style="stroke:#181818;stroke-width:0.5;"/></g><g class="participant participant-tail" data-entity-uid="part2" data-qualified-name="UI" id="part2-tail"><text fill="#000000" font-family="sans-serif" font-size="14" lengthAdjust="spacing" textLength="134.9141" x="307.395" y="829.2539">Giao di&#7879;n &#7913;ng d&#7909;ng</text><path d="M357.3521,836.207 L357.3521,860.207 M357.3521,848.207 L374.3521,848.207" fill="none" style="stroke:#181818;stroke-width:0.5;"/><ellipse cx="386.3521" cy="848.207" fill="#E2E2F0" rx="12" ry="12" style="stroke:#181818;stroke-width:0.5;"/></g><g class="participant participant-head" data-entity-uid="part3" data-qualified-name="RequestService" id="part3-head"><text fill="#000000" font-family="sans-serif" font-size="14" lengthAdjust="spacing" textLength="58.6934" x="539.6172" y="99.5352">REST API</text><text fill="#000000" font-family="sans-serif" font-size="14" lengthAdjust="spacing" textLength="115.2949" x="511.3164" y="116.0234">Python + FastAPI</text><ellipse cx="571.9639" cy="70" fill="#E2E2F0" rx="12" ry="12" style="stroke:#181818;stroke-width:0.5;"/><polygon fill="#181818" points="567.9639,58,573.9639,53,571.9639,58,573.9639,63,567.9639,58" style="stroke:#181818;stroke-width:1;"/></g><g class="participant participant-tail" data-entity-uid="part3" data-qualified-name="RequestService" id="part3-tail"><text fill="#000000" font-family="sans-serif" font-size="14" lengthAdjust="spacing" textLength="58.6934" x="539.6172" y="829.2539">REST API</text><text fill="#000000" font-family="sans-serif" font-size="14" lengthAdjust="spacing" textLength="115.2949" x="511.3164" y="845.7422">Python + FastAPI</text><ellipse cx="571.9639" cy="864.6953" fill="#E2E2F0" rx="12" ry="12" style="stroke:#181818;stroke-width:0.5;"/><polygon fill="#181818" points="567.9639,852.6953,573.9639,847.6953,571.9639,852.6953,573.9639,857.6953,567.9639,852.6953" style="stroke:#181818;stroke-width:1;"/></g><g class="participant participant-head" data-entity-uid="part4" data-qualified-name="MapService" id="part4-head"><rect fill="#EAF7EE" height="30.4883" rx="2.5" ry="2.5" style="stroke:#2E7D4F;stroke-width:0.5;" width="116.2588" x="740.1416" y="87.4883"/><text fill="#18392A" font-family="sans-serif" font-size="14" lengthAdjust="spacing" textLength="102.2588" x="747.1416" y="108.0234">D&#7883;ch v&#7909; b&#7843;n &#273;&#7891;</text></g><g class="participant participant-tail" data-entity-uid="part4" data-qualified-name="MapService" id="part4-tail"><rect fill="#EAF7EE" height="30.4883" rx="2.5" ry="2.5" style="stroke:#2E7D4F;stroke-width:0.5;" width="116.2588" x="740.1416" y="815.7188"/><text fill="#18392A" font-family="sans-serif" font-size="14" lengthAdjust="spacing" textLength="102.2588" x="747.1416" y="836.2539">D&#7883;ch v&#7909; b&#7843;n &#273;&#7891;</text></g><g class="participant participant-head" data-entity-uid="part5" data-qualified-name="DB" id="part5-head"><text fill="#000000" font-family="sans-serif" font-size="14" lengthAdjust="spacing" textLength="91.8477" x="866.4004" y="116.0234">C&#417; s&#7903; d&#7919; li&#7879;u</text><path d="M897.3242,66.4883 C897.3242,56.4883 915.3242,56.4883 915.3242,56.4883 C915.3242,56.4883 933.3242,56.4883 933.3242,66.4883 L933.3242,92.4883 C933.3242,102.4883 915.3242,102.4883 915.3242,102.4883 C915.3242,102.4883 897.3242,102.4883 897.3242,92.4883 L897.3242,66.4883" fill="#E2E2F0" style="stroke:#181818;stroke-width:0.5;"/><path d="M897.3242,66.4883 C897.3242,76.4883 915.3242,76.4883 915.3242,76.4883 C915.3242,76.4883 933.3242,76.4883 933.3242,66.4883" fill="none" style="stroke:#181818;stroke-width:0.5;"/></g><g class="participant participant-tail" data-entity-uid="part5" data-qualified-name="DB" id="part5-tail"><text fill="#000000" font-family="sans-serif" font-size="14" lengthAdjust="spacing" textLength="91.8477" x="866.4004" y="829.2539">C&#417; s&#7903; d&#7919; li&#7879;u</text><path d="M897.3242,842.207 C897.3242,832.207 915.3242,832.207 915.3242,832.207 C915.3242,832.207 933.3242,832.207 933.3242,842.207 L933.3242,868.207 C933.3242,878.207 915.3242,878.207 915.3242,878.207 C915.3242,878.207 897.3242,878.207 897.3242,868.207 L897.3242,842.207" fill="#E2E2F0" style="stroke:#181818;stroke-width:0.5;"/><path d="M897.3242,842.207 C897.3242,852.207 915.3242,852.207 915.3242,852.207 C915.3242,852.207 933.3242,852.207 933.3242,842.207" fill="none" style="stroke:#181818;stroke-width:0.5;"/></g><g class="participant participant-head" data-entity-uid="part6" data-qualified-name="NotificationService" id="part6-head"><text fill="#000000" font-family="sans-serif" font-size="14" lengthAdjust="spacing" textLength="124.7012" x="974.248" y="116.0234">D&#7883;ch v&#7909; th&#244;ng b&#225;o</text><ellipse cx="1039.5986" cy="86.4883" fill="#E2E2F0" rx="12" ry="12" style="stroke:#181818;stroke-width:0.5;"/><polygon fill="#181818" points="1035.5986,74.4883,1041.5986,69.4883,1039.5986,74.4883,1041.5986,79.4883,1035.5986,74.4883" style="stroke:#181818;stroke-width:1;"/></g><g class="participant participant-tail" data-entity-uid="part6" data-qualified-name="NotificationService" id="part6-tail"><text fill="#000000" font-family="sans-serif" font-size="14" lengthAdjust="spacing" textLength="124.7012" x="974.248" y="829.2539">D&#7883;ch v&#7909; th&#244;ng b&#225;o</text><ellipse cx="1039.5986" cy="848.207" fill="#E2E2F0" rx="12" ry="12" style="stroke:#181818;stroke-width:0.5;"/><polygon fill="#181818" points="1035.5986,836.207,1041.5986,831.207,1039.5986,836.207,1041.5986,841.207,1035.5986,836.207" style="stroke:#181818;stroke-width:1;"/></g><g class="message" data-entity-1="part1" data-entity-2="part2" id="msg1"><polygon fill="#3E6250" points="365.8521,146.2871,375.8521,150.2871,365.8521,154.2871,369.8521,150.2871" style="stroke:#3E6250;stroke-width:1;"/><line style="stroke:#3E6250;stroke-width:1;" x1="101.3286" x2="371.8521" y1="150.2871" y2="150.2871"/><text fill="#000000" font-family="sans-serif" font-size="13" font-weight="bold" lengthAdjust="spacing" textLength="8.5757" x="108.3286" y="145.5449">1</text><text fill="#000000" font-family="sans-serif" font-size="13" lengthAdjust="spacing" textLength="109.4907" x="120.9043" y="145.5449">Ch&#7885;n t&#7841;o y&#234;u c&#7847;u</text></g><g class="message" data-entity-1="part2" data-entity-2="part1" id="msg2"><polygon fill="#3E6250" points="112.3286,175.5977,102.3286,179.5977,112.3286,183.5977,108.3286,179.5977" style="stroke:#3E6250;stroke-width:1;"/><line style="stroke:#3E6250;stroke-width:1;stroke-dasharray:2,2;" x1="106.3286" x2="376.8521" y1="179.5977" y2="179.5977"/><text fill="#000000" font-family="sans-serif" font-size="13" font-weight="bold" lengthAdjust="spacing" textLength="8.5757" x="118.3286" y="174.8555">2</text><text fill="#000000" font-family="sans-serif" font-size="13" lengthAdjust="spacing" textLength="112.2837" x="130.9043" y="174.8555">Hi&#7875;n th&#7883; bi&#7875;u m&#7851;u</text></g><g class="message" data-entity-1="part1" data-entity-2="part2" id="msg3"><polygon fill="#3E6250" points="365.8521,204.9082,375.8521,208.9082,365.8521,212.9082,369.8521,208.9082" style="stroke:#3E6250;stroke-width:1;"/><line style="stroke:#3E6250;stroke-width:1;" x1="101.3286" x2="371.8521" y1="208.9082" y2="208.9082"/><text fill="#000000" font-family="sans-serif" font-size="13" font-weight="bold" lengthAdjust="spacing" textLength="8.5757" x="108.3286" y="204.166">3</text><text fill="#000000" font-family="sans-serif" font-size="13" lengthAdjust="spacing" textLength="239.9478" x="120.9043" y="204.166">Nh&#7853;p m&#7863;t h&#224;ng, &#273;&#7883;a ch&#7881;, th&#7901;i gian, ph&#237;</text></g><g class="message" data-entity-1="part1" data-entity-2="part2" id="msg4"><polygon fill="#3E6250" points="365.8521,234.2188,375.8521,238.2188,365.8521,242.2188,369.8521,238.2188" style="stroke:#3E6250;stroke-width:1;"/><line style="stroke:#3E6250;stroke-width:1;" x1="101.3286" x2="371.8521" y1="238.2188" y2="238.2188"/><text fill="#000000" font-family="sans-serif" font-size="13" font-weight="bold" lengthAdjust="spacing" textLength="8.5757" x="108.3286" y="233.4766">4</text><text fill="#000000" font-family="sans-serif" font-size="13" lengthAdjust="spacing" textLength="133.8467" x="120.9043" y="233.4766">X&#225;c nh&#7853;n t&#7841;o y&#234;u c&#7847;u</text></g><g class="message" data-entity-1="part2" data-entity-2="part3" id="msg5"><polygon fill="#3E6250" points="559.9639,263.5293,569.9639,267.5293,559.9639,271.5293,563.9639,267.5293" style="stroke:#3E6250;stroke-width:1;"/><line style="stroke:#3E6250;stroke-width:1;" x1="377.8521" x2="565.9639" y1="267.5293" y2="267.5293"/><text fill="#000000" font-family="sans-serif" font-size="13" font-weight="bold" lengthAdjust="spacing" textLength="8.5757" x="384.8521" y="262.7871">5</text><text fill="#000000" font-family="sans-serif" font-size="13" lengthAdjust="spacing" textLength="136.1636" x="397.4277" y="262.7871">G&#7917;i th&#244;ng tin y&#234;u c&#7847;u</text></g><g class="message" data-entity-1="part3" data-entity-2="part3" id="msg6"><line style="stroke:#3E6250;stroke-width:1;" x1="571.9639" x2="613.9639" y1="296.8398" y2="296.8398"/><line style="stroke:#3E6250;stroke-width:1;" x1="613.9639" x2="613.9639" y1="296.8398" y2="309.8398"/><line style="stroke:#3E6250;stroke-width:1;" x1="572.9639" x2="613.9639" y1="309.8398" y2="309.8398"/><polygon fill="#3E6250" points="582.9639,305.8398,572.9639,309.8398,582.9639,313.8398,578.9639,309.8398" style="stroke:#3E6250;stroke-width:1;"/><text fill="#000000" font-family="sans-serif" font-size="13" font-weight="bold" lengthAdjust="spacing" textLength="8.5757" x="578.9639" y="292.0977">6</text><text fill="#000000" font-family="sans-serif" font-size="13" lengthAdjust="spacing" textLength="160.4497" x="591.5396" y="292.0977">Ki&#7875;m tra d&#7919; li&#7879;u b&#7855;t bu&#7897;c</text></g><path d="M10,324.8398 L72.1387,324.8398 L72.1387,332.1504 L62.1387,342.1504 L10,342.1504 L10,324.8398" fill="#EEEEEE" style="stroke:#B7791F;stroke-width:1.5;"/><rect fill="none" height="474.8789" style="stroke:#B7791F;stroke-width:1.5;" width="1114.9492" x="10" y="324.8398"/><text fill="#000000" font-family="sans-serif" font-size="13" font-weight="bold" lengthAdjust="spacing" textLength="17.1387" x="25" y="338.4082">alt</text><text fill="#000000" font-family="sans-serif" font-size="11" font-weight="bold" lengthAdjust="spacing" textLength="128.4712" x="87.1387" y="337.4746">[D&#7919; li&#7879;u kh&#244;ng h&#7907;p l&#7879;]</text><g class="message" data-entity-1="part3" data-entity-2="part2" id="msg7"><polygon fill="#3E6250" points="388.8521,359.4609,378.8521,363.4609,388.8521,367.4609,384.8521,363.4609" style="stroke:#3E6250;stroke-width:1;"/><line style="stroke:#3E6250;stroke-width:1;stroke-dasharray:2,2;" x1="382.8521" x2="570.9639" y1="363.4609" y2="363.4609"/><text fill="#000000" font-family="sans-serif" font-size="13" font-weight="bold" lengthAdjust="spacing" textLength="8.5757" x="394.8521" y="358.7188">7</text><text fill="#000000" font-family="sans-serif" font-size="13" lengthAdjust="spacing" textLength="114.7402" x="407.4277" y="358.7188">Tr&#7843; v&#7873; l&#7895;i ki&#7875;m tra</text></g><g class="message" data-entity-1="part2" data-entity-2="part1" id="msg8"><polygon fill="#3E6250" points="112.3286,388.7715,102.3286,392.7715,112.3286,396.7715,108.3286,392.7715" style="stroke:#3E6250;stroke-width:1;"/><line style="stroke:#3E6250;stroke-width:1;stroke-dasharray:2,2;" x1="106.3286" x2="376.8521" y1="392.7715" y2="392.7715"/><text fill="#000000" font-family="sans-serif" font-size="13" font-weight="bold" lengthAdjust="spacing" textLength="8.5757" x="118.3286" y="388.0293">8</text><text fill="#000000" font-family="sans-serif" font-size="13" lengthAdjust="spacing" textLength="201.3286" x="130.9043" y="388.0293">Hi&#7875;n th&#7883; n&#7897;i dung c&#7847;n ch&#7881;nh s&#7917;a</text></g><line style="stroke:#B7791F;stroke-width:1;stroke-dasharray:2,2;" x1="10" x2="1124.9492" y1="401.7715" y2="401.7715"/><text fill="#000000" font-family="sans-serif" font-size="11" font-weight="bold" lengthAdjust="spacing" textLength="89.1548" x="15" y="412.4063">[D&#7919; li&#7879;u h&#7907;p l&#7879;]</text><g class="message" data-entity-1="part3" data-entity-2="part4" id="msg9"><polygon fill="#3E6250" points="786.271,433.0371,796.271,437.0371,786.271,441.0371,790.271,437.0371" style="stroke:#3E6250;stroke-width:1;"/><line style="stroke:#3E6250;stroke-width:1;" x1="571.9639" x2="792.271" y1="437.0371" y2="437.0371"/><text fill="#000000" font-family="sans-serif" font-size="13" font-weight="bold" lengthAdjust="spacing" textLength="8.5757" x="578.9639" y="432.2949">9</text><text fill="#000000" font-family="sans-serif" font-size="13" lengthAdjust="spacing" textLength="186.4497" x="591.5396" y="432.2949">Ki&#7875;m tra v&#224; chu&#7849;n h&#243;a &#273;&#7883;a ch&#7881;</text></g><path d="M20,452.0371 L82.1387,452.0371 L82.1387,459.3477 L72.1387,469.3477 L20,469.3477 L20,452.0371" fill="#EEEEEE" style="stroke:#B7791F;stroke-width:1.5;"/><rect fill="none" height="340.6816" style="stroke:#B7791F;stroke-width:1.5;" width="1094.9492" x="20" y="452.0371"/><text fill="#000000" font-family="sans-serif" font-size="13" font-weight="bold" lengthAdjust="spacing" textLength="17.1387" x="35" y="465.6055">alt</text><text fill="#000000" font-family="sans-serif" font-size="11" font-weight="bold" lengthAdjust="spacing" textLength="126.1992" x="97.1387" y="464.6719">[&#272;&#7883;a ch&#7881; kh&#244;ng h&#7907;p l&#7879;]</text><g class="message" data-entity-1="part4" data-entity-2="part3" id="msg10"><polygon fill="#3E6250" points="582.9639,486.6582,572.9639,490.6582,582.9639,494.6582,578.9639,490.6582" style="stroke:#3E6250;stroke-width:1;"/><line style="stroke:#3E6250;stroke-width:1;stroke-dasharray:2,2;" x1="576.9639" x2="797.271" y1="490.6582" y2="490.6582"/><text fill="#000000" font-family="sans-serif" font-size="13" font-weight="bold" lengthAdjust="spacing" textLength="17.1514" x="588.9639" y="485.916">10</text><text fill="#000000" font-family="sans-serif" font-size="13" lengthAdjust="spacing" textLength="181.1558" x="610.1152" y="485.916">Kh&#244;ng x&#225;c &#273;&#7883;nh &#273;&#432;&#7907;c &#273;&#7883;a ch&#7881;</text></g><g class="message" data-entity-1="part3" data-entity-2="part2" id="msg11"><polygon fill="#3E6250" points="388.8521,515.9688,378.8521,519.9688,388.8521,523.9688,384.8521,519.9688" style="stroke:#3E6250;stroke-width:1;"/><line style="stroke:#3E6250;stroke-width:1;stroke-dasharray:2,2;" x1="382.8521" x2="570.9639" y1="519.9688" y2="519.9688"/><text fill="#000000" font-family="sans-serif" font-size="13" font-weight="bold" lengthAdjust="spacing" textLength="17.1514" x="394.8521" y="515.2266">11</text><text fill="#000000" font-family="sans-serif" font-size="13" lengthAdjust="spacing" textLength="148.9604" x="416.0034" y="515.2266">Y&#234;u c&#7847;u ch&#7885;n l&#7841;i &#273;&#7883;a ch&#7881;</text></g><g class="message" data-entity-1="part2" data-entity-2="part1" id="msg12"><polygon fill="#3E6250" points="112.3286,545.2793,102.3286,549.2793,112.3286,553.2793,108.3286,549.2793" style="stroke:#3E6250;stroke-width:1;"/><line style="stroke:#3E6250;stroke-width:1;stroke-dasharray:2,2;" x1="106.3286" x2="376.8521" y1="549.2793" y2="549.2793"/><text fill="#000000" font-family="sans-serif" font-size="13" font-weight="bold" lengthAdjust="spacing" textLength="17.1514" x="118.3286" y="544.5371">12</text><text fill="#000000" font-family="sans-serif" font-size="13" lengthAdjust="spacing" textLength="114.8672" x="139.48" y="544.5371">Hi&#7875;n th&#7883; l&#7895;i &#273;&#7883;a ch&#7881;</text></g><line style="stroke:#B7791F;stroke-width:1;stroke-dasharray:2,2;" x1="20" x2="1114.9492" y1="558.2793" y2="558.2793"/><text fill="#000000" font-family="sans-serif" font-size="11" font-weight="bold" lengthAdjust="spacing" textLength="86.8828" x="25" y="568.9141">[&#272;&#7883;a ch&#7881; h&#7907;p l&#7879;]</text><g class="message" data-entity-1="part4" data-entity-2="part3" id="msg13"><polygon fill="#3E6250" points="582.9639,589.5449,572.9639,593.5449,582.9639,597.5449,578.9639,593.5449" style="stroke:#3E6250;stroke-width:1;"/><line style="stroke:#3E6250;stroke-width:1;stroke-dasharray:2,2;" x1="576.9639" x2="797.271" y1="593.5449" y2="593.5449"/><text fill="#000000" font-family="sans-serif" font-size="13" font-weight="bold" lengthAdjust="spacing" textLength="17.1514" x="588.9639" y="588.8027">13</text><text fill="#000000" font-family="sans-serif" font-size="13" lengthAdjust="spacing" textLength="177.0171" x="610.1152" y="588.8027">T&#7885;a &#273;&#7897; v&#224; &#273;&#7883;a ch&#7881; chu&#7849;n h&#243;a</text></g><g class="message" data-entity-1="part3" data-entity-2="part5" id="msg14"><polygon fill="#3E6250" points="903.3242,634.166,913.3242,638.166,903.3242,642.166,907.3242,638.166" style="stroke:#3E6250;stroke-width:1;"/><line style="stroke:#3E6250;stroke-width:1;" x1="571.9639" x2="909.3242" y1="638.166" y2="638.166"/><text fill="#000000" font-family="sans-serif" font-size="13" font-weight="bold" lengthAdjust="spacing" textLength="17.1514" x="578.9639" y="625.7686">14</text><text fill="#000000" font-family="sans-serif" font-size="13" lengthAdjust="spacing" textLength="226.1099" x="600.1152" y="618.1133">L&#432;u y&#234;u c&#7847;u v&#224; danh s&#225;ch m&#7863;t h&#224;ng</text><text fill="#000000" font-family="sans-serif" font-size="13" lengthAdjust="spacing" textLength="121.9448" x="600.1152" y="633.4238">tr&#7841;ng th&#225;i PENDING</text></g><g class="message" data-entity-1="part5" data-entity-2="part3" id="msg15"><polygon fill="#3E6250" points="582.9639,663.4766,572.9639,667.4766,582.9639,671.4766,578.9639,667.4766" style="stroke:#3E6250;stroke-width:1;"/><line style="stroke:#3E6250;stroke-width:1;stroke-dasharray:2,2;" x1="576.9639" x2="914.3242" y1="667.4766" y2="667.4766"/><text fill="#000000" font-family="sans-serif" font-size="13" font-weight="bold" lengthAdjust="spacing" textLength="17.1514" x="588.9639" y="662.7344">15</text><text fill="#000000" font-family="sans-serif" font-size="13" lengthAdjust="spacing" textLength="114.4673" x="610.1152" y="662.7344">Tr&#7843; v&#7873; m&#227; y&#234;u c&#7847;u</text></g><g class="message" data-entity-1="part3" data-entity-2="part6" id="msg16"><polygon fill="#3E6250" points="1027.5986,692.7871,1037.5986,696.7871,1027.5986,700.7871,1031.5986,696.7871" style="stroke:#3E6250;stroke-width:1;"/><line style="stroke:#3E6250;stroke-width:1;" x1="571.9639" x2="1033.5986" y1="696.7871" y2="696.7871"/><text fill="#000000" font-family="sans-serif" font-size="13" font-weight="bold" lengthAdjust="spacing" textLength="17.1514" x="578.9639" y="692.0449">16</text><text fill="#000000" font-family="sans-serif" font-size="13" lengthAdjust="spacing" textLength="199.1069" x="600.1152" y="692.0449">Y&#234;u c&#7847;u th&#244;ng b&#225;o y&#234;u c&#7847;u m&#7899;i</text></g><g class="message" data-entity-1="part6" data-entity-2="part3" id="msg17"><polygon fill="#3E6250" points="582.9639,722.0977,572.9639,726.0977,582.9639,730.0977,578.9639,726.0977" style="stroke:#3E6250;stroke-width:1;"/><line style="stroke:#3E6250;stroke-width:1;stroke-dasharray:2,2;" x1="576.9639" x2="1038.5986" y1="726.0977" y2="726.0977"/><text fill="#000000" font-family="sans-serif" font-size="13" font-weight="bold" lengthAdjust="spacing" textLength="17.1514" x="588.9639" y="721.3555">17</text><text fill="#000000" font-family="sans-serif" font-size="13" lengthAdjust="spacing" textLength="149.2334" x="610.1152" y="721.3555">&#272;&#227; ti&#7871;p nh&#7853;n th&#244;ng b&#225;o</text></g><g class="message" data-entity-1="part3" data-entity-2="part2" id="msg18"><polygon fill="#3E6250" points="388.8521,751.4082,378.8521,755.4082,388.8521,759.4082,384.8521,755.4082" style="stroke:#3E6250;stroke-width:1;"/><line style="stroke:#3E6250;stroke-width:1;stroke-dasharray:2,2;" x1="382.8521" x2="570.9639" y1="755.4082" y2="755.4082"/><text fill="#000000" font-family="sans-serif" font-size="13" font-weight="bold" lengthAdjust="spacing" textLength="17.1514" x="394.8521" y="750.666">18</text><text fill="#000000" font-family="sans-serif" font-size="13" lengthAdjust="spacing" textLength="141.9717" x="416.0034" y="750.666">Tr&#7843; v&#7873; y&#234;u c&#7847;u v&#7915;a t&#7841;o</text></g><g class="message" data-entity-1="part2" data-entity-2="part1" id="msg19"><polygon fill="#3E6250" points="112.3286,780.7188,102.3286,784.7188,112.3286,788.7188,108.3286,784.7188" style="stroke:#3E6250;stroke-width:1;"/><line style="stroke:#3E6250;stroke-width:1;stroke-dasharray:2,2;" x1="106.3286" x2="376.8521" y1="784.7188" y2="784.7188"/><text fill="#000000" font-family="sans-serif" font-size="13" font-weight="bold" lengthAdjust="spacing" textLength="17.1514" x="118.3286" y="779.9766">19</text><text fill="#000000" font-family="sans-serif" font-size="13" lengthAdjust="spacing" textLength="201.0874" x="139.48" y="779.9766">Hi&#7875;n th&#7883; t&#7841;o y&#234;u c&#7847;u th&#224;nh c&#244;ng</text></g><?plantuml-src bLLDInjH5DtFhxZ4PHNyZcOHC1-ZKXk2HcZ1pSlCc7cOl9bEtcYbT55Sb285fOiYfLG9fLW92YqKCeik9lW_tZ_fVJF6l8cZjWiNphttt7FElU-6KzwqOBCucOK9g8dUcGFxuGyV3D7xxaF_c89XYw2Z4Pyxp6_LBK_JsZkKkSGZBQWJOwVXEJupYqxJyM3FfjnIucsRcCuUPGtO9irs8cAzz2rcMF1Q0rZoF6SlHXYRASzFpqtAZmPtl8BZcPPt4vekPqkp-Y2aEupV1AOMPXQdbp2mHhUjDSgiHDbSUM5olgX6HrYFwLcze2zWHfLud1hK9OodTrOJHb7AItgsN4ucfP5SnY8t0L_8PXUdz45enI8OkajIrsTByzeRJIDIFcGgZUih4NoXEAN-0Leyd5i6I1lMfSDjZWEhInJYxKDccH87J2g2Tmn4S8v5fWY-iKPKiBcg6KZNSvgGMIzlr62fkhh5gllSTXWy0PsqENvHiJSiRvSQbkOE1KEc9893muPT18Qww7KOyXF1nwZk6N47DIRXf4xQ5cIArsVG5i5NoUKIcf9ThA1K619IKRaT_aBgzV3CYV8g3gVRr22SEcm0hztAXuayIij14VVu0mC-ikFQvYfCOCfjVWvMaC81PcB18TJbFpwqHE_2lmjQiKMlwyheRmvsUCeQuv7SGnAzc_VZ4GhEg4496mVN3hjtGPw7PmOmYNGFlVo8uJbO5a6N3epWbAaLoToqwgTIKmkuHrJFvRGkETHz4PmOk6LD3YKbkXCtazV0XIP-mdqTRNKZgERXtEMitih4JnHsRXjYqIE6CsnFmVInbzJ3OYEPBNUaIpGBxqY2ruE4yihA9NJlXgS8x8lUESEv_II9gI6GLDy_6dvAbGyAkgffs30kUYK773L06VrZ-MmxncZ7UzryCRp7Hhp3JLmIUhV-4MFZKOnKHNOcXFwVmXeIYiqxYJnLuHC6fohCunlFmThrbQ_-waWSayY9es-s-hYsy1gWThdpTeWMLCkLqcfbES8k5T893dUn5NRKTv9EAEMO94QW71-LSqi4dsa4cGAGIgn_X7Gu5Rq_xktZ7s8_j12A9DKr4LoG-7xyopQC7XhP_1GzDoG5kHZCrF3lBm00?></g></svg>