<?plantuml 1.2026.2?><svg xmlns="http://www.w3.org/2000/svg" xmlns:xlink="http://www.w3.org/1999/xlink" contentStyleType="text/css" data-diagram-type="ACTIVITY" height="2023.125px" preserveAspectRatio="none" style="width:1966px;height:2023px;background:#FFFFFF;" version="1.1" viewBox="0 0 1966 2023" width="1966.875px" zoomAndPan="magnify"><title>ACTIVITY DIAGRAM - T&#204;M KI&#7870;M Y&#202;U C&#7846;U (UC18)</title><defs/><g><g class="title" data-source-line="2"><text fill="#000000" font-family="sans-serif" font-size="26.25" font-weight="bold" lengthAdjust="spacing" textLength="655.199" x="653.909" y="62.8784">ACTIVITY DIAGRAM - T&#204;M KI&#7870;M Y&#202;U C&#7846;U (UC18)</text></g><rect fill="none" height="39.7485" style="stroke:none;stroke-width:1.875;" width="1906.767" x="28.125" y="93.3472"/><ellipse cx="389.1824" cy="161.2207" fill="#28775D" rx="18.75" ry="18.75" style="stroke:#222222;stroke-width:1.875;"/><rect fill="#F3FBF7" height="90.498" rx="23.4375" ry="23.4375" style="stroke:#2F8065;stroke-width:0.9375;" width="246.7676" x="265.7986" y="217.4707"/><text fill="#172033" font-family="sans-serif" font-size="22.5" lengthAdjust="spacing" textLength="155.3796" x="284.5486" y="257.9736">M&#7903; ch&#7913;c n&#259;ng</text><text fill="#172033" font-family="sans-serif" font-size="22.5" lengthAdjust="spacing" textLength="209.2676" x="284.5486" y="284.4727">"T&#236;m ki&#7871;m y&#234;u c&#7847;u"</text><rect fill="#F3FBF7" height="90.498" rx="23.4375" ry="23.4375" style="stroke:#2F8065;stroke-width:0.9375;" width="355.708" x="211.3284" y="345.4688"/><text fill="#172033" font-family="sans-serif" font-size="22.5" lengthAdjust="spacing" textLength="318.208" x="230.0784" y="385.9717">Ch&#7885;n khu v&#7921;c ho&#7863;c cho ph&#233;p</text><text fill="#172033" font-family="sans-serif" font-size="22.5" lengthAdjust="spacing" textLength="234.9536" x="230.0784" y="412.4707">s&#7917; d&#7909;ng v&#7883; tr&#237; hi&#7879;n t&#7841;i</text><rect fill="#F3FBF7" height="90.498" rx="23.4375" ry="23.4375" style="stroke:#2F8065;stroke-width:0.9375;" width="385.6787" x="196.3431" y="473.4668"/><text fill="#172033" font-family="sans-serif" font-size="22.5" lengthAdjust="spacing" textLength="348.1787" x="215.0931" y="513.9697">Nh&#7853;p &#273;i&#7873;u ki&#7879;n v&#7873; kho&#7843;ng c&#225;ch,</text><text fill="#172033" font-family="sans-serif" font-size="22.5" lengthAdjust="spacing" textLength="292.6538" x="215.0931" y="540.4688">th&#7901;i gian ho&#7863;c m&#7913;c chi ph&#237;</text><rect fill="#F3FBF7" height="63.999" rx="23.4375" ry="23.4375" style="stroke:#2F8065;stroke-width:0.9375;" width="365.3101" x="206.5274" y="936.2146"/><text fill="#172033" font-family="sans-serif" font-size="22.5" lengthAdjust="spacing" textLength="327.8101" x="225.2774" y="976.7175">&#272;i&#7873;u ch&#7881;nh &#273;i&#7873;u ki&#7879;n t&#236;m ki&#7871;m</text><rect fill="#F3FBF7" height="90.498" rx="23.4375" ry="23.4375" style="stroke:#2F8065;stroke-width:0.9375;" width="297.887" x="39.375" y="1774.9548"/><text fill="#172033" font-family="sans-serif" font-size="22.5" lengthAdjust="spacing" textLength="260.387" x="58.125" y="1815.4578">Thay &#273;&#7893;i &#273;i&#7873;u ki&#7879;n ho&#7863;c</text><text fill="#172033" font-family="sans-serif" font-size="22.5" lengthAdjust="spacing" textLength="192.4475" x="58.125" y="1841.9568">k&#7871;t th&#250;c t&#236;m ki&#7871;m</text><ellipse cx="188.3185" cy="1950.0769" fill="none" rx="20.625" ry="20.625" style="stroke:#222222;stroke-width:1.875;"/><ellipse cx="188.3185" cy="1950.0769" fill="#222222" rx="11.25" ry="11.25" style="stroke:#222222;stroke-width:1.875;"/><rect fill="#F3FBF7" height="63.999" rx="23.4375" ry="23.4375" style="stroke:#2F8065;stroke-width:0.9375;" width="292.1521" x="443.9703" y="1774.9548"/><text fill="#172033" font-family="sans-serif" font-size="22.5" lengthAdjust="spacing" textLength="254.6521" x="462.7203" y="1815.4578">Xem danh s&#225;ch k&#7871;t qu&#7843;</text><ellipse cx="590.0464" cy="1923.5779" fill="none" rx="20.625" ry="20.625" style="stroke:#222222;stroke-width:1.875;"/><ellipse cx="590.0464" cy="1923.5779" fill="#222222" rx="11.25" ry="11.25" style="stroke:#222222;stroke-width:1.875;"/><line style="stroke:#000000;stroke-width:2.8125;" x1="28.125" x2="28.125" y1="93.3472" y2="2000.7019"/><rect fill="#F3FBF7" height="90.498" rx="23.4375" ry="23.4375" style="stroke:#2F8065;stroke-width:0.9375;" width="286.3293" x="976.4731" y="601.4648"/><text fill="#172033" font-family="sans-serif" font-size="22.5" lengthAdjust="spacing" textLength="218.4521" x="995.2231" y="641.9678">Ki&#7875;m tra t&#237;nh h&#7907;p l&#7879;</text><text fill="#172033" font-family="sans-serif" font-size="22.5" lengthAdjust="spacing" textLength="248.8293" x="995.2231" y="668.4668">c&#7911;a &#273;i&#7873;u ki&#7879;n t&#236;m ki&#7871;m</text><rect fill="#F3FBF7" height="63.999" rx="23.4375" ry="23.4375" style="stroke:#2F8065;stroke-width:0.9375;" width="394.0393" x="922.6181" y="834.7156"/><text fill="#172033" font-family="sans-serif" font-size="22.5" lengthAdjust="spacing" textLength="356.5393" x="941.3681" y="875.2185">Hi&#7875;n th&#7883; n&#7897;i dung c&#7847;n &#273;i&#7873;u ch&#7881;nh</text><rect fill="#F3FBF7" height="63.999" rx="23.4375" ry="23.4375" style="stroke:#2F8065;stroke-width:0.9375;" width="269.5093" x="984.8831" y="1037.7136"/><text fill="#172033" font-family="sans-serif" font-size="22.5" lengthAdjust="spacing" textLength="232.0093" x="1003.6331" y="1078.2166">Ki&#7875;m tra l&#7841;i &#273;i&#7873;u ki&#7879;n</text><polygon fill="#FFF7E8" points="1005.3191,729.4629,1233.9565,729.4629,1256.4565,751.9629,1233.9565,774.4629,1005.3191,774.4629,982.8191,751.9629,1005.3191,729.4629" style="stroke:#C17A1B;stroke-width:0.9375;"/><text fill="#000000" font-family="sans-serif" font-size="20.625" lengthAdjust="spacing" textLength="26.9394" x="1127.1378" y="794.4031">C&#243;</text><text fill="#172033" font-family="sans-serif" font-size="20.625" lengthAdjust="spacing" textLength="228.6374" x="1005.3191" y="759.7577">&#272;i&#7873;u ki&#7879;n ch&#432;a h&#7907;p l&#7879;?</text><text fill="#000000" font-family="sans-serif" font-size="20.625" lengthAdjust="spacing" textLength="64.5941" x="918.2249" y="747.6123">Kh&#244;ng</text><rect fill="#F3FBF7" height="90.498" rx="23.4375" ry="23.4375" style="stroke:#2F8065;stroke-width:0.9375;" width="530.7092" x="854.2831" y="1180.4626"/><text fill="#172033" font-family="sans-serif" font-size="22.5" lengthAdjust="spacing" textLength="419.8206" x="873.0331" y="1220.9656">L&#7845;y c&#225;c y&#234;u c&#7847;u c&#243; tr&#7841;ng th&#225;i PENDING</text><text fill="#172033" font-family="sans-serif" font-size="22.5" lengthAdjust="spacing" textLength="493.2092" x="873.0331" y="1247.4646">v&#224; lo&#7841;i b&#7887; y&#234;u c&#7847;u do ch&#237;nh ng&#432;&#7901;i nh&#7853;n &#273;&#259;ng</text><rect fill="#F3FBF7" height="90.498" rx="23.4375" ry="23.4375" style="stroke:#2F8065;stroke-width:0.9375;" width="331.8237" x="953.7259" y="1436.4587"/><text fill="#172033" font-family="sans-serif" font-size="22.5" lengthAdjust="spacing" textLength="294.3237" x="972.4759" y="1476.9617">L&#7885;c v&#224; s&#7855;p x&#7871;p c&#225;c y&#234;u c&#7847;u</text><text fill="#172033" font-family="sans-serif" font-size="22.5" lengthAdjust="spacing" textLength="259.6509" x="972.4759" y="1503.4607">theo &#273;i&#7873;u ki&#7879;n t&#236;m ki&#7871;m</text><polygon fill="#FFF7E8" points="1014.7151,1564.4568,1224.5604,1564.4568,1247.0604,1586.9568,1224.5604,1609.4568,1014.7151,1609.4568,992.2151,1586.9568,1014.7151,1564.4568" style="stroke:#C17A1B;stroke-width:0.9375;"/><text fill="#172033" font-family="sans-serif" font-size="20.625" lengthAdjust="spacing" textLength="209.8453" x="1014.7151" y="1594.7516">C&#243; y&#234;u c&#7847;u ph&#249; h&#7907;p?</text><text fill="#000000" font-family="sans-serif" font-size="20.625" lengthAdjust="spacing" textLength="64.5941" x="927.621" y="1582.6062">Kh&#244;ng</text><text fill="#000000" font-family="sans-serif" font-size="20.625" lengthAdjust="spacing" textLength="26.9394" x="1247.0604" y="1582.6062">C&#243;</text><rect fill="#F3FBF7" height="90.498" rx="23.4375" ry="23.4375" style="stroke:#2F8065;stroke-width:0.9375;" width="327.8027" x="754.8724" y="1646.9568"/><text fill="#172033" font-family="sans-serif" font-size="22.5" lengthAdjust="spacing" textLength="290.3027" x="773.6224" y="1687.4597">Th&#244;ng b&#225;o kh&#244;ng t&#236;m th&#7845;y</text><text fill="#172033" font-family="sans-serif" font-size="22.5" lengthAdjust="spacing" textLength="182.9224" x="773.6224" y="1713.9587">y&#234;u c&#7847;u ph&#249; h&#7907;p</text><rect fill="#F3FBF7" height="90.498" rx="23.4375" ry="23.4375" style="stroke:#2F8065;stroke-width:0.9375;" width="400.6531" x="1120.1752" y="1646.9568"/><text fill="#172033" font-family="sans-serif" font-size="22.5" lengthAdjust="spacing" textLength="354.6826" x="1138.9252" y="1687.4597">Hi&#7875;n th&#7883; danh s&#225;ch y&#234;u c&#7847;u c&#249;ng</text><text fill="#172033" font-family="sans-serif" font-size="22.5" lengthAdjust="spacing" textLength="363.1531" x="1138.9252" y="1713.9587">th&#244;ng tin t&#243;m t&#7855;t v&#224; kho&#7843;ng c&#225;ch</text><line style="stroke:#000000;stroke-width:2.8125;" x1="743.6224" x2="743.6224" y1="93.3472" y2="2000.7019"/><rect fill="#F3FBF7" height="90.498" rx="23.4375" ry="23.4375" style="stroke:#2F8065;stroke-width:0.9375;" width="384.3494" x="1539.5782" y="1308.4607"/><text fill="#172033" font-family="sans-serif" font-size="22.5" lengthAdjust="spacing" textLength="346.8494" x="1558.3282" y="1348.9636">X&#225;c &#273;&#7883;nh t&#7885;a &#273;&#7897; v&#224; kho&#7843;ng c&#225;ch</text><text fill="#172033" font-family="sans-serif" font-size="22.5" lengthAdjust="spacing" textLength="300.531" x="1558.3282" y="1375.4626">gi&#7919;a c&#225;c &#273;&#7883;a &#273;i&#7875;m li&#234;n quan</text><line style="stroke:#000000;stroke-width:2.8125;" x1="1528.3282" x2="1528.3282" y1="93.3472" y2="2000.7019"/><line style="stroke:#000000;stroke-width:2.8125;" x1="1931.4276" x2="1931.4276" y1="93.3472" y2="2000.7019"/><line style="stroke:#64748B;stroke-width:2.25;" x1="389.1824" x2="389.1824" y1="179.9707" y2="217.4707"/><polygon fill="#64748B" points="381.6824,198.7207,389.1824,217.4707,396.6824,198.7207,389.1824,206.2207" style="stroke:#64748B;stroke-width:1.875;"/><line style="stroke:#64748B;stroke-width:2.25;" x1="389.1824" x2="389.1824" y1="307.9688" y2="345.4688"/><polygon fill="#64748B" points="381.6824,326.7188,389.1824,345.4688,396.6824,326.7188,389.1824,334.2188" style="stroke:#64748B;stroke-width:1.875;"/><line style="stroke:#64748B;stroke-width:2.25;" x1="389.1824" x2="389.1824" y1="435.9668" y2="473.4668"/><polygon fill="#64748B" points="381.6824,454.7168,389.1824,473.4668,396.6824,454.7168,389.1824,462.2168" style="stroke:#64748B;stroke-width:1.875;"/><line style="stroke:#64748B;stroke-width:2.25;" x1="188.3185" x2="188.3185" y1="1865.4529" y2="1929.4519"/><polygon fill="#64748B" points="180.8185,1910.7019,188.3185,1929.4519,195.8185,1910.7019,188.3185,1918.2019" style="stroke:#64748B;stroke-width:1.875;"/><line style="stroke:#64748B;stroke-width:2.25;" x1="590.0464" x2="590.0464" y1="1838.9539" y2="1902.9529"/><polygon fill="#64748B" points="582.5464,1884.2029,590.0464,1902.9529,597.5464,1884.2029,590.0464,1891.7029" style="stroke:#64748B;stroke-width:1.875;"/><line style="stroke:#64748B;stroke-width:2.25;" x1="1119.6378" x2="1119.6378" y1="774.4629" y2="834.7156"/><polygon fill="#64748B" points="1112.1378,815.9656,1119.6378,834.7156,1127.1378,815.9656,1119.6378,823.4656" style="stroke:#64748B;stroke-width:1.875;"/><line style="stroke:#64748B;stroke-width:2.25;" x1="1119.6378" x2="1119.6378" y1="1101.7126" y2="1120.4626"/><line style="stroke:#64748B;stroke-width:2.25;" x1="1119.6378" x2="1339.1574" y1="1120.4626" y2="1120.4626"/><polygon fill="#64748B" points="1331.6574,952.3187,1339.1574,933.5687,1346.6574,952.3187,1339.1574,944.8187" style="stroke:#64748B;stroke-width:2.25;"/><line style="stroke:#64748B;stroke-width:2.25;" x1="1339.1574" x2="1339.1574" y1="751.9629" y2="1120.4626"/><line style="stroke:#64748B;stroke-width:2.25;" x1="1339.1574" x2="1256.4565" y1="751.9629" y2="751.9629"/><polygon fill="#64748B" points="1275.2065,744.4629,1256.4565,751.9629,1275.2065,759.4629,1267.7065,751.9629" style="stroke:#64748B;stroke-width:1.875;"/><line style="stroke:#64748B;stroke-width:2.25;" x1="982.8191" x2="900.1181" y1="751.9629" y2="751.9629"/><polygon fill="#64748B" points="892.6181,926.0687,900.1181,944.8187,907.6181,926.0687,900.1181,933.5687" style="stroke:#64748B;stroke-width:2.25;"/><line style="stroke:#64748B;stroke-width:2.25;" x1="900.1181" x2="900.1181" y1="751.9629" y2="1142.9626"/><line style="stroke:#64748B;stroke-width:2.25;" x1="900.1181" x2="1119.6378" y1="1142.9626" y2="1142.9626"/><line style="stroke:#64748B;stroke-width:2.25;" x1="1119.6378" x2="1119.6378" y1="1142.9626" y2="1180.4626"/><polygon fill="#64748B" points="1112.1378,1161.7126,1119.6378,1180.4626,1127.1378,1161.7126,1119.6378,1169.2126" style="stroke:#64748B;stroke-width:1.875;"/><line style="stroke:#64748B;stroke-width:2.25;" x1="1119.6378" x2="1119.6378" y1="691.9629" y2="729.4629"/><polygon fill="#64748B" points="1112.1378,710.7129,1119.6378,729.4629,1127.1378,710.7129,1119.6378,718.2129" style="stroke:#64748B;stroke-width:1.875;"/><line style="stroke:#64748B;stroke-width:2.25;" x1="992.2151" x2="918.7738" y1="1586.9568" y2="1586.9568"/><line style="stroke:#64748B;stroke-width:2.25;" x1="918.7738" x2="918.7738" y1="1586.9568" y2="1646.9568"/><polygon fill="#64748B" points="911.2738,1628.2068,918.7738,1646.9568,926.2738,1628.2068,918.7738,1635.7068" style="stroke:#64748B;stroke-width:1.875;"/><line style="stroke:#64748B;stroke-width:2.25;" x1="1247.0604" x2="1320.5017" y1="1586.9568" y2="1586.9568"/><line style="stroke:#64748B;stroke-width:2.25;" x1="1320.5017" x2="1320.5017" y1="1586.9568" y2="1646.9568"/><polygon fill="#64748B" points="1313.0017,1628.2068,1320.5017,1646.9568,1328.0017,1628.2068,1320.5017,1635.7068" style="stroke:#64748B;stroke-width:1.875;"/><line style="stroke:#64748B;stroke-width:2.25;" x1="1119.6378" x2="1119.6378" y1="1526.9568" y2="1564.4568"/><polygon fill="#64748B" points="1112.1378,1545.7068,1119.6378,1564.4568,1127.1378,1545.7068,1119.6378,1553.2068" style="stroke:#64748B;stroke-width:1.875;"/><line style="stroke:#64748B;stroke-width:2.25;" x1="389.1824" x2="389.1824" y1="563.9648" y2="573.3398"/><line style="stroke:#64748B;stroke-width:2.25;" x1="389.1824" x2="1119.6378" y1="573.3398" y2="573.3398"/><line style="stroke:#64748B;stroke-width:2.25;" x1="1119.6378" x2="1119.6378" y1="573.3398" y2="601.4648"/><polygon fill="#64748B" points="1112.1378,582.7148,1119.6378,601.4648,1127.1378,582.7148,1119.6378,590.2148" style="stroke:#64748B;stroke-width:1.875;"/><line style="stroke:#64748B;stroke-width:2.25;" x1="1119.6378" x2="1119.6378" y1="898.7146" y2="908.0896"/><line style="stroke:#64748B;stroke-width:2.25;" x1="1119.6378" x2="389.1824" y1="908.0896" y2="908.0896"/><line style="stroke:#64748B;stroke-width:2.25;" x1="389.1824" x2="389.1824" y1="908.0896" y2="936.2146"/><polygon fill="#64748B" points="381.6824,917.4646,389.1824,936.2146,396.6824,917.4646,389.1824,924.9646" style="stroke:#64748B;stroke-width:1.875;"/><line style="stroke:#64748B;stroke-width:2.25;" x1="389.1824" x2="389.1824" y1="1000.2136" y2="1009.5886"/><line style="stroke:#64748B;stroke-width:2.25;" x1="389.1824" x2="1119.6378" y1="1009.5886" y2="1009.5886"/><line style="stroke:#64748B;stroke-width:2.25;" x1="1119.6378" x2="1119.6378" y1="1009.5886" y2="1037.7136"/><polygon fill="#64748B" points="1112.1378,1018.9636,1119.6378,1037.7136,1127.1378,1018.9636,1119.6378,1026.4636" style="stroke:#64748B;stroke-width:1.875;"/><line style="stroke:#64748B;stroke-width:2.25;" x1="1119.6378" x2="1119.6378" y1="1270.9607" y2="1280.3357"/><line style="stroke:#64748B;stroke-width:2.25;" x1="1119.6378" x2="1731.7529" y1="1280.3357" y2="1280.3357"/><line style="stroke:#64748B;stroke-width:2.25;" x1="1731.7529" x2="1731.7529" y1="1280.3357" y2="1308.4607"/><polygon fill="#64748B" points="1724.2529,1289.7107,1731.7529,1308.4607,1739.2529,1289.7107,1731.7529,1297.2107" style="stroke:#64748B;stroke-width:1.875;"/><line style="stroke:#64748B;stroke-width:2.25;" x1="1731.7529" x2="1731.7529" y1="1398.9587" y2="1408.3337"/><line style="stroke:#64748B;stroke-width:2.25;" x1="1731.7529" x2="1119.6378" y1="1408.3337" y2="1408.3337"/><line style="stroke:#64748B;stroke-width:2.25;" x1="1119.6378" x2="1119.6378" y1="1408.3337" y2="1436.4587"/><polygon fill="#64748B" points="1112.1378,1417.7087,1119.6378,1436.4587,1127.1378,1417.7087,1119.6378,1425.2087" style="stroke:#64748B;stroke-width:1.875;"/><line style="stroke:#64748B;stroke-width:2.25;" x1="918.7738" x2="918.7738" y1="1737.4548" y2="1746.8298"/><line style="stroke:#64748B;stroke-width:2.25;" x1="918.7738" x2="188.3185" y1="1746.8298" y2="1746.8298"/><line style="stroke:#64748B;stroke-width:2.25;" x1="188.3185" x2="188.3185" y1="1746.8298" y2="1774.9548"/><polygon fill="#64748B" points="180.8185,1756.2048,188.3185,1774.9548,195.8185,1756.2048,188.3185,1763.7048" style="stroke:#64748B;stroke-width:1.875;"/><line style="stroke:#64748B;stroke-width:2.25;" x1="1320.5017" x2="1320.5017" y1="1737.4548" y2="1746.8298"/><line style="stroke:#64748B;stroke-width:2.25;" x1="1320.5017" x2="590.0464" y1="1746.8298" y2="1746.8298"/><line style="stroke:#64748B;stroke-width:2.25;" x1="590.0464" x2="590.0464" y1="1746.8298" y2="1774.9548"/><polygon fill="#64748B" points="582.5464,1756.2048,590.0464,1774.9548,597.5464,1756.2048,590.0464,1763.7048" style="stroke:#64748B;stroke-width:1.875;"/><text fill="#000000" font-family="sans-serif" font-size="33.75" lengthAdjust="spacing" textLength="329.046" x="221.3507" y="125.9766">Ng&#432;&#7901;i nh&#7853;n y&#234;u c&#7847;u</text><text fill="#000000" font-family="sans-serif" font-size="33.75" lengthAdjust="spacing" textLength="150.5731" x="1060.6888" y="125.9766">H&#7879; th&#7889;ng</text><text fill="#000000" font-family="sans-serif" font-size="33.75" lengthAdjust="spacing" textLength="246.5167" x="1606.6196" y="125.9766">D&#7883;ch v&#7909; b&#7843;n &#273;&#7891;</text><?plantuml-src ZLHDQznM5DthLzoc6nlQulb8PZfUbFdm98DZKzfnI60spvAizvZHVOhqP7UekmXPbDOjhGbPP15Q4zoGqC4fBfH8q2vayZ_UF-bzyjZMJ0OJBmRhVfnppxr7-YW8cUSp6B6nZ1L4lgiOCai9DNAXsUxtxlNw3w3JQzx-gha1dq8_-sa3rdiw-NS37cG_Ra5R9tzimT9MkrHVjgneA31W8VF12GIKwYk5ICIP8_S4Uh33Hf5Ro6mpU-Y5CaQdBKSoX8-x-L-XWjbAx0erXcyjWDPxvPLkgrip6HawRZYDbhlrbLitATgLgAQnKgsyKgbGh2EOBz5fBM2khTKB1KN4TgdMBBKe-RLYuGLakLwhtUnGSEqIv3BKOXUjjwgrQhrbVLVGHB-qPY7nN5IHwFDgizAgpuvUhbRArUP2-QrkkxisWzqCGxatIpsNx7DX3z6D8YXzLhQi_KtltHkTFXU0N2SJX77sEWPR9o_ZVIioSgt6Xav_0vlhz9KDUFOOlG7Uw6T_-Z0KEldFBxJSMBKQRIhy6M78OzZLwLysSAcJVsm2a13mx5Kmm4Yd4t1qUaoUe9e3K64s0Ivq-Zs2qicH89nDCqy0PuSKVXGRBfEbyaU4JP0lgDdEZcp-oG0LpoLuWk45dP-FQtDXI2UhfFGE0O2fF4Hltsgi4-1ZdwWPg6o272Zp8e0HLGtGrkbBDi-jhZGJtXuNzAeidVqwKsFpTszO0UgBPH0HBBMpqsKwOUEE8SLyYWD0dJuJuCH626qFB_dChdz0laeTrzw702_efotNZaneipkW_i8MHcRnSm2hbelELEawp_v6ZrxsnbsT78_pvHV6eUTJmY4GqgDuHbXVhcrsUfkt1xYR_GuZcUDlw_INOfSZQVPy_pYdzEpGUCrShaFRihcv_J7rq-KffzCdTCJxPWRpS400Yep7ygTdO1XdRJ90ZoITiFEvyvxfXKd_I6Il4Hx631SuvIxXsZbYf9EJ0BwXTGRpyeq9NNczPSHExeIYV3BdstExa5C80Q_slEXS_Jm7szcH97dv_pa5rT191hWG-KDyrETid2_bwRm5fY_K08UaGfdB9lQyho8b0ykbZ_kbqzyVVSRw3gDxHUOiimvwQpukQYfCcFsT-kQBSA8MNFH3TDrt_IBPkOQ7CQ5SpOsEsB7-1m00?></g></svg>