<?plantuml 1.2026.2?><svg xmlns="http://www.w3.org/2000/svg" xmlns:xlink="http://www.w3.org/1999/xlink" contentStyleType="text/css" data-diagram-type="ACTIVITY" height="2223.75px" preserveAspectRatio="none" style="width:2109px;height:2223px;background:#FFFFFF;" version="1.1" viewBox="0 0 2109 2223" width="2109.375px" zoomAndPan="magnify"><title>ACTIVITY DIAGRAM - NH&#7852;N TH&#7920;C HI&#7878;N Y&#202;U C&#7846;U (UC19)</title><defs/><g><g class="title" data-source-line="2"><text fill="#000000" font-family="sans-serif" font-size="26.25" font-weight="bold" lengthAdjust="spacing" textLength="770.5554" x="666.6486" y="62.8784">ACTIVITY DIAGRAM - NH&#7852;N TH&#7920;C HI&#7878;N Y&#202;U C&#7846;U (UC19)</text></g><rect fill="none" height="39.7485" style="stroke:none;stroke-width:1.875;" width="2047.6025" x="28.125" y="93.3472"/><ellipse cx="450.8212" cy="161.2207" fill="#28775D" rx="18.75" ry="18.75" style="stroke:#222222;stroke-width:1.875;"/><rect fill="#F3FBF7" height="90.498" rx="23.4375" ry="23.4375" style="stroke:#2F8065;stroke-width:0.9375;" width="311.9824" x="294.83" y="217.4707"/><text fill="#172033" font-family="sans-serif" font-size="22.5" lengthAdjust="spacing" textLength="178.1323" x="313.58" y="257.9736">Ch&#7885;n ch&#7913;c n&#259;ng</text><text fill="#172033" font-family="sans-serif" font-size="22.5" lengthAdjust="spacing" textLength="274.4824" x="313.58" y="284.4727">"Nh&#7853;n th&#7921;c hi&#7879;n y&#234;u c&#7847;u"</text><polygon fill="#FFF7E8" points="331.2859,473.4668,570.3566,473.4668,592.8566,495.9668,570.3566,518.4668,331.2859,518.4668,308.7859,495.9668,331.2859,473.4668" style="stroke:#C17A1B;stroke-width:0.9375;"/><text fill="#172033" font-family="sans-serif" font-size="20.625" lengthAdjust="spacing" textLength="239.0707" x="331.2859" y="503.7616">X&#225;c nh&#7853;n nh&#7853;n y&#234;u c&#7847;u?</text><text fill="#000000" font-family="sans-serif" font-size="20.625" lengthAdjust="spacing" textLength="64.5941" x="244.1917" y="491.6162">Kh&#244;ng</text><text fill="#000000" font-family="sans-serif" font-size="20.625" lengthAdjust="spacing" textLength="26.9394" x="592.8566" y="491.6162">C&#243;</text><rect fill="#F3FBF7" height="63.999" rx="23.4375" ry="23.4375" style="stroke:#2F8065;stroke-width:0.9375;" width="236.4185" x="171.3593" y="537.2168"/><text fill="#172033" font-family="sans-serif" font-size="22.5" lengthAdjust="spacing" textLength="198.9185" x="190.1093" y="577.7197">H&#7911;y thao t&#225;c nh&#7853;n</text><ellipse cx="289.5685" cy="659.3408" fill="none" rx="20.625" ry="20.625" style="stroke:#222222;stroke-width:1.875;"/><ellipse cx="289.5685" cy="659.3408" fill="#222222" rx="11.25" ry="11.25" style="stroke:#222222;stroke-width:1.875;"/><rect fill="#F3FBF7" height="63.999" rx="23.4375" ry="23.4375" style="stroke:#2F8065;stroke-width:0.9375;" width="333.5925" x="445.2777" y="537.2168"/><text fill="#172033" font-family="sans-serif" font-size="22.5" lengthAdjust="spacing" textLength="296.0925" x="464.0277" y="577.7197">G&#7917;i x&#225;c nh&#7853;n nh&#7853;n y&#234;u c&#7847;u</text><rect fill="#F3FBF7" height="63.999" rx="23.4375" ry="23.4375" style="stroke:#2F8065;stroke-width:0.9375;" width="229.2554" x="97.0807" y="1055.9619"/><text fill="#172033" font-family="sans-serif" font-size="22.5" lengthAdjust="spacing" textLength="191.7554" x="115.8307" y="1096.4648">Xem l&#253; do t&#7915; ch&#7889;i</text><ellipse cx="211.7084" cy="1178.0859" fill="none" rx="20.625" ry="20.625" style="stroke:#222222;stroke-width:1.875;"/><ellipse cx="211.7084" cy="1178.0859" fill="#222222" rx="11.25" ry="11.25" style="stroke:#222222;stroke-width:1.875;"/><rect fill="#F3FBF7" height="63.999" rx="23.4375" ry="23.4375" style="stroke:#2F8065;stroke-width:0.9375;" width="347.1716" x="39.375" y="1473.208"/><text fill="#172033" font-family="sans-serif" font-size="22.5" lengthAdjust="spacing" textLength="309.6716" x="58.125" y="1513.7109">Quay l&#7841;i danh s&#225;ch t&#236;m ki&#7871;m</text><ellipse cx="212.9608" cy="1595.332" fill="none" rx="20.625" ry="20.625" style="stroke:#222222;stroke-width:1.875;"/><ellipse cx="212.9608" cy="1595.332" fill="#222222" rx="11.25" ry="11.25" style="stroke:#222222;stroke-width:1.875;"/><rect fill="#F3FBF7" height="90.498" rx="23.4375" ry="23.4375" style="stroke:#2F8065;stroke-width:0.9375;" width="519.679" x="190.9818" y="2033.7012"/><text fill="#172033" font-family="sans-serif" font-size="22.5" lengthAdjust="spacing" textLength="482.179" x="209.7318" y="2074.2041">Nh&#7853;n th&#244;ng b&#225;o th&#224;nh c&#244;ng v&#224; xem y&#234;u c&#7847;u</text><text fill="#172033" font-family="sans-serif" font-size="22.5" lengthAdjust="spacing" textLength="382.1924" x="209.7318" y="2100.7031">trong danh s&#225;ch "Y&#234;u c&#7847;u &#273;&#227; nh&#7853;n"</text><ellipse cx="450.8212" cy="2182.3242" fill="none" rx="20.625" ry="20.625" style="stroke:#222222;stroke-width:1.875;"/><ellipse cx="450.8212" cy="2182.3242" fill="#222222" rx="11.25" ry="11.25" style="stroke:#222222;stroke-width:1.875;"/><line style="stroke:#000000;stroke-width:2.8125;" x1="28.125" x2="28.125" y1="93.3472" y2="2202.9492"/><rect fill="#F3FBF7" height="90.498" rx="23.4375" ry="23.4375" style="stroke:#2F8065;stroke-width:0.9375;" width="317.0911" x="1090.665" y="345.4688"/><text fill="#172033" font-family="sans-serif" font-size="22.5" lengthAdjust="spacing" textLength="279.5911" x="1109.415" y="385.9717">Hi&#7875;n th&#7883; th&#244;ng tin t&#243;m t&#7855;t</text><text fill="#172033" font-family="sans-serif" font-size="22.5" lengthAdjust="spacing" textLength="220.7813" x="1109.415" y="412.4707">v&#224; y&#234;u c&#7847;u x&#225;c nh&#7853;n</text><rect fill="#F3FBF7" height="90.498" rx="23.4375" ry="23.4375" style="stroke:#2F8065;stroke-width:0.9375;" width="458.8916" x="1019.7647" y="717.4658"/><text fill="#172033" font-family="sans-serif" font-size="22.5" lengthAdjust="spacing" textLength="381.3464" x="1038.5147" y="757.9688">Ki&#7875;m tra t&#224;i kho&#7843;n &#273;ang ho&#7841;t &#273;&#7897;ng</text><text fill="#172033" font-family="sans-serif" font-size="22.5" lengthAdjust="spacing" textLength="421.3916" x="1038.5147" y="784.4678">v&#224; ng&#432;&#7901;i nh&#7853;n kh&#244;ng ph&#7843;i ng&#432;&#7901;i &#273;&#259;ng</text><polygon fill="#FFF7E8" points="1153.2811,845.4639,1345.1399,845.4639,1367.6399,867.9639,1345.1399,890.4639,1153.2811,890.4639,1130.7811,867.9639,1153.2811,845.4639" style="stroke:#C17A1B;stroke-width:0.9375;"/><text fill="#172033" font-family="sans-serif" font-size="20.625" lengthAdjust="spacing" textLength="191.8588" x="1153.2811" y="875.7587">&#272;&#7911; &#273;i&#7873;u ki&#7879;n nh&#7853;n?</text><text fill="#000000" font-family="sans-serif" font-size="20.625" lengthAdjust="spacing" textLength="64.5941" x="1066.187" y="863.6133">Kh&#244;ng</text><text fill="#000000" font-family="sans-serif" font-size="20.625" lengthAdjust="spacing" textLength="26.9394" x="1367.6399" y="863.6133">C&#243;</text><rect fill="#F3FBF7" height="63.999" rx="23.4375" ry="23.4375" style="stroke:#2F8065;stroke-width:0.9375;" width="424.9548" x="797.6202" y="927.9639"/><text fill="#172033" font-family="sans-serif" font-size="22.5" lengthAdjust="spacing" textLength="387.4548" x="816.3702" y="968.4668">Th&#244;ng b&#225;o kh&#244;ng th&#7875; nh&#7853;n y&#234;u c&#7847;u</text><rect fill="#F3FBF7" height="90.498" rx="23.4375" ry="23.4375" style="stroke:#2F8065;stroke-width:0.9375;" width="456.4966" x="1260.0751" y="927.9639"/><text fill="#172033" font-family="sans-serif" font-size="22.5" lengthAdjust="spacing" textLength="418.9966" x="1278.8251" y="968.4668">Kh&#243;a b&#7843;n ghi v&#224; ki&#7875;m tra l&#7841;i tr&#7841;ng th&#225;i</text><text fill="#172033" font-family="sans-serif" font-size="22.5" lengthAdjust="spacing" textLength="335.0171" x="1278.8251" y="994.9658">trong m&#7897;t giao d&#7883;ch nguy&#234;n t&#7917;</text><polygon fill="#FFF7E8" points="1136.4326,1236.2109,1361.9884,1236.2109,1384.4884,1258.7109,1361.9884,1281.2109,1136.4326,1281.2109,1113.9326,1258.7109,1136.4326,1236.2109" style="stroke:#C17A1B;stroke-width:0.9375;"/><text fill="#172033" font-family="sans-serif" font-size="20.625" lengthAdjust="spacing" textLength="225.5557" x="1136.4326" y="1266.5057">Y&#234;u c&#7847;u c&#242;n PENDING?</text><text fill="#000000" font-family="sans-serif" font-size="20.625" lengthAdjust="spacing" textLength="64.5941" x="1049.3385" y="1254.3604">Kh&#244;ng</text><text fill="#000000" font-family="sans-serif" font-size="20.625" lengthAdjust="spacing" textLength="26.9394" x="1384.4884" y="1254.3604">C&#243;</text><rect fill="#F3FBF7" height="90.498" rx="23.4375" ry="23.4375" style="stroke:#2F8065;stroke-width:0.9375;" width="427.3608" x="797.6697" y="1318.7109"/><text fill="#172033" font-family="sans-serif" font-size="22.5" lengthAdjust="spacing" textLength="389.8608" x="816.4197" y="1359.2139">H&#7911;y giao d&#7883;ch v&#224; th&#244;ng b&#225;o y&#234;u c&#7847;u</text><text fill="#172033" font-family="sans-serif" font-size="22.5" lengthAdjust="spacing" textLength="281.3599" x="816.4197" y="1385.7129">&#273;&#227; &#273;&#432;&#7907;c ng&#432;&#7901;i kh&#225;c nh&#7853;n</text><rect fill="#F3FBF7" height="63.999" rx="23.4375" ry="23.4375" style="stroke:#2F8065;stroke-width:0.9375;" width="350.4016" x="1311.8701" y="1318.7109"/><text fill="#172033" font-family="sans-serif" font-size="22.5" lengthAdjust="spacing" textLength="312.9016" x="1330.6201" y="1359.2139">G&#225;n ng&#432;&#7901;i nh&#7853;n cho y&#234;u c&#7847;u</text><rect fill="#F3FBF7" height="90.498" rx="23.4375" ry="23.4375" style="stroke:#2F8065;stroke-width:0.9375;" width="368.1445" x="1302.9987" y="1446.709"/><text fill="#172033" font-family="sans-serif" font-size="22.5" lengthAdjust="spacing" textLength="330.6445" x="1321.7487" y="1487.2119">Chuy&#7875;n tr&#7841;ng th&#225;i t&#7915; PENDING</text><text fill="#172033" font-family="sans-serif" font-size="22.5" lengthAdjust="spacing" textLength="173.573" x="1321.7487" y="1513.7109">sang ACCEPTED</text><rect fill="#F3FBF7" height="90.498" rx="23.4375" ry="23.4375" style="stroke:#2F8065;stroke-width:0.9375;" width="449.0808" x="1262.5305" y="1574.707"/><text fill="#172033" font-family="sans-serif" font-size="22.5" lengthAdjust="spacing" textLength="265.3088" x="1281.2805" y="1615.21">L&#432;u l&#7883;ch s&#7917; tr&#7841;ng th&#225;i v&#224;</text><text fill="#172033" font-family="sans-serif" font-size="22.5" lengthAdjust="spacing" textLength="411.5808" x="1281.2805" y="1641.709">lo&#7841;i y&#234;u c&#7847;u kh&#7887;i danh s&#225;ch ch&#7901; nh&#7853;n</text><rect fill="#F3FBF7" height="63.999" rx="23.4375" ry="23.4375" style="stroke:#2F8065;stroke-width:0.9375;" width="362.7393" x="1305.7013" y="1702.7051"/><text fill="#172033" font-family="sans-serif" font-size="22.5" lengthAdjust="spacing" textLength="325.2393" x="1324.4513" y="1743.208">T&#7841;o cu&#7897;c trao &#273;&#7893;i cho hai b&#234;n</text><rect fill="#F3FBF7" height="63.999" rx="23.4375" ry="23.4375" style="stroke:#2F8065;stroke-width:0.9375;" width="375.7471" x="1299.1974" y="1804.2041"/><text fill="#172033" font-family="sans-serif" font-size="22.5" lengthAdjust="spacing" textLength="338.2471" x="1317.9474" y="1844.707">G&#7917;i th&#244;ng b&#225;o &#273;&#7871;n ng&#432;&#7901;i &#273;&#259;ng</text><line style="stroke:#000000;stroke-width:2.8125;" x1="786.3702" x2="786.3702" y1="93.3472" y2="2202.9492"/><rect fill="#F3FBF7" height="90.498" rx="23.4375" ry="23.4375" style="stroke:#2F8065;stroke-width:0.9375;" width="303.7207" x="1748.1821" y="1905.7031"/><text fill="#172033" font-family="sans-serif" font-size="22.5" lengthAdjust="spacing" textLength="266.2207" x="1766.9321" y="1946.2061">Nh&#7853;n th&#244;ng b&#225;o y&#234;u c&#7847;u</text><text fill="#172033" font-family="sans-serif" font-size="22.5" lengthAdjust="spacing" textLength="241.3257" x="1766.9321" y="1972.7051">&#273;&#227; c&#243; ng&#432;&#7901;i th&#7921;c hi&#7879;n</text><line style="stroke:#000000;stroke-width:2.8125;" x1="1724.0717" x2="1724.0717" y1="93.3472" y2="2202.9492"/><line style="stroke:#000000;stroke-width:2.8125;" x1="2072.2632" x2="2072.2632" y1="93.3472" y2="2202.9492"/><line style="stroke:#64748B;stroke-width:2.25;" x1="450.8212" x2="450.8212" y1="179.9707" y2="217.4707"/><polygon fill="#64748B" points="443.3212,198.7207,450.8212,217.4707,458.3212,198.7207,450.8212,206.2207" style="stroke:#64748B;stroke-width:1.875;"/><line style="stroke:#64748B;stroke-width:2.25;" x1="289.5685" x2="289.5685" y1="601.2158" y2="638.7158"/><polygon fill="#64748B" points="282.0685,619.9658,289.5685,638.7158,297.0685,619.9658,289.5685,627.4658" style="stroke:#64748B;stroke-width:1.875;"/><line style="stroke:#64748B;stroke-width:2.25;" x1="308.7859" x2="289.5685" y1="495.9668" y2="495.9668"/><line style="stroke:#64748B;stroke-width:2.25;" x1="289.5685" x2="289.5685" y1="495.9668" y2="537.2168"/><polygon fill="#64748B" points="282.0685,518.4668,289.5685,537.2168,297.0685,518.4668,289.5685,525.9668" style="stroke:#64748B;stroke-width:1.875;"/><line style="stroke:#64748B;stroke-width:2.25;" x1="592.8566" x2="612.074" y1="495.9668" y2="495.9668"/><line style="stroke:#64748B;stroke-width:2.25;" x1="612.074" x2="612.074" y1="495.9668" y2="537.2168"/><polygon fill="#64748B" points="604.574,518.4668,612.074,537.2168,619.574,518.4668,612.074,525.9668" style="stroke:#64748B;stroke-width:1.875;"/><line style="stroke:#64748B;stroke-width:2.25;" x1="612.074" x2="612.074" y1="601.2158" y2="689.3408"/><line style="stroke:#64748B;stroke-width:2.25;" x1="612.074" x2="1249.2105" y1="689.3408" y2="689.3408"/><line style="stroke:#64748B;stroke-width:2.25;" x1="1249.2105" x2="1249.2105" y1="689.3408" y2="717.4658"/><polygon fill="#64748B" points="1241.7105,698.7158,1249.2105,717.4658,1256.7105,698.7158,1249.2105,706.2158" style="stroke:#64748B;stroke-width:1.875;"/><line style="stroke:#64748B;stroke-width:2.25;" x1="211.7084" x2="211.7084" y1="1119.9609" y2="1157.4609"/><polygon fill="#64748B" points="204.2084,1138.7109,211.7084,1157.4609,219.2084,1138.7109,211.7084,1146.2109" style="stroke:#64748B;stroke-width:1.875;"/><line style="stroke:#64748B;stroke-width:2.25;" x1="212.9608" x2="212.9608" y1="1537.207" y2="1574.707"/><polygon fill="#64748B" points="205.4608,1555.957,212.9608,1574.707,220.4608,1555.957,212.9608,1563.457" style="stroke:#64748B;stroke-width:1.875;"/><line style="stroke:#64748B;stroke-width:2.25;" x1="450.8212" x2="450.8212" y1="2124.1992" y2="2161.6992"/><polygon fill="#64748B" points="443.3212,2142.9492,450.8212,2161.6992,458.3212,2142.9492,450.8212,2150.4492" style="stroke:#64748B;stroke-width:1.875;"/><line style="stroke:#64748B;stroke-width:2.25;" x1="1130.7811" x2="1010.0977" y1="867.9639" y2="867.9639"/><line style="stroke:#64748B;stroke-width:2.25;" x1="1010.0977" x2="1010.0977" y1="867.9639" y2="927.9639"/><polygon fill="#64748B" points="1002.5977,909.2139,1010.0977,927.9639,1017.5977,909.2139,1010.0977,916.7139" style="stroke:#64748B;stroke-width:1.875;"/><line style="stroke:#64748B;stroke-width:2.25;" x1="1367.6399" x2="1488.3234" y1="867.9639" y2="867.9639"/><line style="stroke:#64748B;stroke-width:2.25;" x1="1488.3234" x2="1488.3234" y1="867.9639" y2="927.9639"/><polygon fill="#64748B" points="1480.8234,909.2139,1488.3234,927.9639,1495.8234,909.2139,1488.3234,916.7139" style="stroke:#64748B;stroke-width:1.875;"/><line style="stroke:#64748B;stroke-width:2.25;" x1="1488.3234" x2="1488.3234" y1="1018.4619" y2="1208.0859"/><line style="stroke:#64748B;stroke-width:2.25;" x1="1488.3234" x2="1249.2105" y1="1208.0859" y2="1208.0859"/><line style="stroke:#64748B;stroke-width:2.25;" x1="1249.2105" x2="1249.2105" y1="1208.0859" y2="1236.2109"/><polygon fill="#64748B" points="1241.7105,1217.4609,1249.2105,1236.2109,1256.7105,1217.4609,1249.2105,1224.9609" style="stroke:#64748B;stroke-width:1.875;"/><line style="stroke:#64748B;stroke-width:2.25;" x1="1249.2105" x2="1249.2105" y1="807.9639" y2="845.4639"/><polygon fill="#64748B" points="1241.7105,826.7139,1249.2105,845.4639,1256.7105,826.7139,1249.2105,834.2139" style="stroke:#64748B;stroke-width:1.875;"/><line style="stroke:#64748B;stroke-width:2.25;" x1="1487.0709" x2="1487.0709" y1="1382.71" y2="1446.709"/><polygon fill="#64748B" points="1479.5709,1427.959,1487.0709,1446.709,1494.5709,1427.959,1487.0709,1435.459" style="stroke:#64748B;stroke-width:1.875;"/><line style="stroke:#64748B;stroke-width:2.25;" x1="1487.0709" x2="1487.0709" y1="1537.207" y2="1574.707"/><polygon fill="#64748B" points="1479.5709,1555.957,1487.0709,1574.707,1494.5709,1555.957,1487.0709,1563.457" style="stroke:#64748B;stroke-width:1.875;"/><line style="stroke:#64748B;stroke-width:2.25;" x1="1487.0709" x2="1487.0709" y1="1665.2051" y2="1702.7051"/><polygon fill="#64748B" points="1479.5709,1683.9551,1487.0709,1702.7051,1494.5709,1683.9551,1487.0709,1691.4551" style="stroke:#64748B;stroke-width:1.875;"/><line style="stroke:#64748B;stroke-width:2.25;" x1="1487.0709" x2="1487.0709" y1="1766.7041" y2="1804.2041"/><polygon fill="#64748B" points="1479.5709,1785.4541,1487.0709,1804.2041,1494.5709,1785.4541,1487.0709,1792.9541" style="stroke:#64748B;stroke-width:1.875;"/><line style="stroke:#64748B;stroke-width:2.25;" x1="1113.9326" x2="1011.3501" y1="1258.7109" y2="1258.7109"/><line style="stroke:#64748B;stroke-width:2.25;" x1="1011.3501" x2="1011.3501" y1="1258.7109" y2="1318.7109"/><polygon fill="#64748B" points="1003.8501,1299.9609,1011.3501,1318.7109,1018.8501,1299.9609,1011.3501,1307.4609" style="stroke:#64748B;stroke-width:1.875;"/><line style="stroke:#64748B;stroke-width:2.25;" x1="1384.4884" x2="1487.0709" y1="1258.7109" y2="1258.7109"/><line style="stroke:#64748B;stroke-width:2.25;" x1="1487.0709" x2="1487.0709" y1="1258.7109" y2="1318.7109"/><polygon fill="#64748B" points="1479.5709,1299.9609,1487.0709,1318.7109,1494.5709,1299.9609,1487.0709,1307.4609" style="stroke:#64748B;stroke-width:1.875;"/><line style="stroke:#64748B;stroke-width:2.25;" x1="1487.0709" x2="1487.0709" y1="1868.2031" y2="1877.5781"/><line style="stroke:#64748B;stroke-width:2.25;" x1="1487.0709" x2="1900.0424" y1="1877.5781" y2="1877.5781"/><line style="stroke:#64748B;stroke-width:2.25;" x1="1900.0424" x2="1900.0424" y1="1877.5781" y2="1905.7031"/><polygon fill="#64748B" points="1892.5424,1886.9531,1900.0424,1905.7031,1907.5424,1886.9531,1900.0424,1894.4531" style="stroke:#64748B;stroke-width:1.875;"/><line style="stroke:#64748B;stroke-width:2.25;" x1="450.8212" x2="450.8212" y1="307.9688" y2="317.3438"/><line style="stroke:#64748B;stroke-width:2.25;" x1="450.8212" x2="1249.2105" y1="317.3438" y2="317.3438"/><line style="stroke:#64748B;stroke-width:2.25;" x1="1249.2105" x2="1249.2105" y1="317.3438" y2="345.4688"/><polygon fill="#64748B" points="1241.7105,326.7188,1249.2105,345.4688,1256.7105,326.7188,1249.2105,334.2188" style="stroke:#64748B;stroke-width:1.875;"/><line style="stroke:#64748B;stroke-width:2.25;" x1="1249.2105" x2="1249.2105" y1="435.9668" y2="445.3418"/><line style="stroke:#64748B;stroke-width:2.25;" x1="1249.2105" x2="450.8212" y1="445.3418" y2="445.3418"/><line style="stroke:#64748B;stroke-width:2.25;" x1="450.8212" x2="450.8212" y1="445.3418" y2="473.4668"/><polygon fill="#64748B" points="443.3212,454.7168,450.8212,473.4668,458.3212,454.7168,450.8212,462.2168" style="stroke:#64748B;stroke-width:1.875;"/><line style="stroke:#64748B;stroke-width:2.25;" x1="1010.0977" x2="1010.0977" y1="991.9629" y2="1024.7754"/><line style="stroke:#64748B;stroke-width:2.25;" x1="1010.0977" x2="211.7084" y1="1024.7754" y2="1024.7754"/><line style="stroke:#64748B;stroke-width:2.25;" x1="211.7084" x2="211.7084" y1="1024.7754" y2="1055.9619"/><polygon fill="#64748B" points="204.2084,1037.2119,211.7084,1055.9619,219.2084,1037.2119,211.7084,1044.7119" style="stroke:#64748B;stroke-width:1.875;"/><line style="stroke:#64748B;stroke-width:2.25;" x1="1011.3501" x2="1011.3501" y1="1409.209" y2="1440.3955"/><line style="stroke:#64748B;stroke-width:2.25;" x1="1011.3501" x2="212.9608" y1="1440.3955" y2="1440.3955"/><line style="stroke:#64748B;stroke-width:2.25;" x1="212.9608" x2="212.9608" y1="1440.3955" y2="1473.208"/><polygon fill="#64748B" points="205.4608,1454.458,212.9608,1473.208,220.4608,1454.458,212.9608,1461.958" style="stroke:#64748B;stroke-width:1.875;"/><line style="stroke:#64748B;stroke-width:2.25;" x1="1900.0424" x2="1900.0424" y1="1996.2012" y2="2005.5762"/><line style="stroke:#64748B;stroke-width:2.25;" x1="1900.0424" x2="450.8212" y1="2005.5762" y2="2005.5762"/><line style="stroke:#64748B;stroke-width:2.25;" x1="450.8212" x2="450.8212" y1="2005.5762" y2="2033.7012"/><polygon fill="#64748B" points="443.3212,2014.9512,450.8212,2033.7012,458.3212,2014.9512,450.8212,2022.4512" style="stroke:#64748B;stroke-width:1.875;"/><text fill="#000000" font-family="sans-serif" font-size="33.75" lengthAdjust="spacing" textLength="329.046" x="242.7246" y="125.9766">Ng&#432;&#7901;i nh&#7853;n y&#234;u c&#7847;u</text><text fill="#000000" font-family="sans-serif" font-size="33.75" lengthAdjust="spacing" textLength="150.5731" x="1179.9344" y="125.9766">H&#7879; th&#7889;ng</text><text fill="#000000" font-family="sans-serif" font-size="33.75" lengthAdjust="spacing" textLength="329.4415" x="1733.4467" y="125.9766">Ng&#432;&#7901;i &#273;&#259;ng y&#234;u c&#7847;u</text><?plantuml-src ZPHBRzD04CVl_XH3kRG7KFE0XFI04YTf8o3YaI8gvRArtNYLU3Uorq14EQ1A884GvC210rAZIbIKLXJAAH7gmH7Vmz-4MJjjDWyeEJZsxEmyVlFVlTHsISCXq28TxWlm74iGHZH1HSk2l5whFApKDg1OoQ_Upz-1Ar1T2_k7LQYjXODZ7TOguU1b5JQ2r-kWX_tFwx2uhYTkB6cQrwIiJLpYWDccaCWkAnRF9YP_Gba3jaZBivILJM8q6oxtcQdp5dVXSZdwAHx44FGn5HrufW4KPjnJvK8v8rUuQrhko9eiPvUlNqDhcJCniYKooULK2cr5IXpEpCASp9bILd5G8-g9J3vHmCK7WhXd8PFPJEPQ4Osbyo3dfW8vstezdKbd2zfpfITy8c_AMToKckX6EfygP2TBJwPJoNH-Rlk5ibukJSJEkov_CfbwQh5cKwF9BC-3nDMafcrN6x-Fmy4d2imE-qSCEi613qROt_UtDK-sg-LqEnoyPM3WtnS3s727DUfieHhx2xH-Dy2cuU2LkdjX1OEZR5v57btMsDPoQ-Yq4szvWy_W9sf2K3G49mw8iFzDrDdZO5U90a-3dZ4gRUM2QkaMB3uQky-wt5p2f1Q3nLjHwYLaciCAzpje9XohK581U8AtDGi52ujwS18vhuQ38wgMD9jZHREOIRTcUxybUySkNOA9TYaqRHxsznWCkmGfo8-Um8zmy57IbHJOLA_D65WRl_ReU7NObGD1EBB_uNli1qsOx8KFpNWeyVuvtK_LY1tMuXoRGO-VvPFBE_CQnVt_6WT6UsGvq0f-WObmmy7NI45TEX_kR2rOvmc1pOXImwOWcJJ755j8ZE8R_aLL1ZrQPyBb-E4WHG4DYaCrKMg6ZRHyh8t9Cex-DYB9RsEiF2FumU1kgLgiL5V_Yrqi9JMhh5WeHCTuwcpO3VPmK9BVdZ6U9aAVKE55YE_vf3D2OH9cWuVRRLJOeIDPzK-T_wMz6lJOZEGCcq-D72y3lnEVOfLyFDyHhJhpfARpkbwwMoiLesstVn_xM6U4nSCXJ6r7KdNMub4VokblOe7l9ZgJ4lgayCdLS0y7myUH6r8NF3f47sXKkqqeaZ-8FUFJgyu3FVkdRFOedUcZEhammJvtVl_zOxv6S3AEFd5JNdIPpGkFxxi8meWiKbjFyNofEMFrAxGM53r71SMPy6wE9F47?></g></svg>