<?plantuml 1.2026.2?><svg xmlns="http://www.w3.org/2000/svg" xmlns:xlink="http://www.w3.org/1999/xlink" contentStyleType="text/css" data-diagram-type="ACTIVITY" height="1245px" preserveAspectRatio="none" style="width:877px;height:1245px;background:#FFFFFF;" version="1.1" viewBox="0 0 877 1245" width="877px" zoomAndPan="magnify"><title>UC28 - X&#7917; l&#253; b&#225;o c&#225;o v&#7845;n &#273;&#7873;</title><defs/><g><g class="title" data-source-line="2"><text fill="#000000" font-family="sans-serif" font-size="14" font-weight="bold" lengthAdjust="spacing" textLength="206.6982" x="333.7583" y="33.5352">UC28 - X&#7917; l&#253; b&#225;o c&#225;o v&#7845;n &#273;&#7873;</text></g><rect fill="none" height="21.1992" style="stroke:none;stroke-width:1;" width="844.2148" x="15" y="49.7852"/><ellipse cx="158.585" cy="85.9844" fill="#222222" rx="10" ry="10" style="stroke:#222222;stroke-width:1;"/><rect fill="#EAF7EE" height="34.1328" rx="12.5" ry="12.5" style="stroke:#2E7D4F;stroke-width:0.5;" width="150.7285" x="83.2207" y="115.9844"/><text fill="#18392A" font-family="sans-serif" font-size="12" lengthAdjust="spacing" textLength="130.7285" x="93.2207" y="137.5859">M&#7903; danh s&#225;ch b&#225;o c&#225;o</text><rect fill="#EAF7EE" height="34.1328" rx="12.5" ry="12.5" style="stroke:#2E7D4F;stroke-width:0.5;" width="184.9941" x="66.0879" y="170.1172"/><text fill="#18392A" font-family="sans-serif" font-size="12" lengthAdjust="spacing" textLength="164.9941" x="76.0879" y="191.7188">Ch&#7885;n m&#7897;t b&#225;o c&#225;o ch&#7901; x&#7917; l&#253;</text><rect fill="#EAF7EE" height="34.1328" rx="12.5" ry="12.5" style="stroke:#2E7D4F;stroke-width:0.5;" width="216.207" x="50.4814" y="292.5156"/><text fill="#18392A" font-family="sans-serif" font-size="12" lengthAdjust="spacing" textLength="196.207" x="60.4814" y="314.1172">Ki&#7875;m tra th&#244;ng tin v&#224; b&#7857;ng ch&#7913;ng</text><rect fill="#EAF7EE" height="34.1328" rx="12.5" ry="12.5" style="stroke:#2E7D4F;stroke-width:0.5;" width="196.7012" x="60.2344" y="395.126"/><text fill="#18392A" font-family="sans-serif" font-size="12" lengthAdjust="spacing" textLength="176.7012" x="70.2344" y="416.7275">G&#7917;i y&#234;u c&#7847;u b&#7893; sung th&#244;ng tin</text><rect fill="#EAF7EE" height="34.1328" rx="12.5" ry="12.5" style="stroke:#2E7D4F;stroke-width:0.5;" width="148.6777" x="84.2461" y="680.79"/><text fill="#18392A" font-family="sans-serif" font-size="12" lengthAdjust="spacing" textLength="128.6777" x="94.2461" y="702.3916">Xem l&#7841;i h&#7891; s&#417; b&#225;o c&#225;o</text><polygon fill="#FFF4D6" points="96.3958,346.6484,220.7742,346.6484,232.7742,358.6484,220.7742,370.6484,96.3958,370.6484,84.3958,358.6484,96.3958,346.6484" style="stroke:#B7791F;stroke-width:0.5;"/><text fill="#000000" font-family="sans-serif" font-size="11" lengthAdjust="spacing" textLength="14.3677" x="162.585" y="381.2832">C&#243;</text><text fill="#18392A" font-family="sans-serif" font-size="11" lengthAdjust="spacing" textLength="124.3784" x="96.3958" y="362.8057">C&#7847;n b&#7893; sung th&#244;ng tin?</text><text fill="#000000" font-family="sans-serif" font-size="11" lengthAdjust="spacing" textLength="34.4502" x="49.9456" y="356.3281">Kh&#244;ng</text><polygon fill="#FFF4D6" points="158.585,734.9229,170.585,746.9229,158.585,758.9229,146.585,746.9229,158.585,734.9229" style="stroke:#B7791F;stroke-width:0.5;"/><rect fill="#EAF7EE" height="34.1328" rx="12.5" ry="12.5" style="stroke:#2E7D4F;stroke-width:0.5;" width="221.1699" x="48" y="778.9229"/><text fill="#18392A" font-family="sans-serif" font-size="12" lengthAdjust="spacing" textLength="201.1699" x="58" y="800.5244">&#272;&#432;a ra k&#7871;t lu&#7853;n v&#224; bi&#7879;n ph&#225;p x&#7917; l&#253;</text><rect fill="#EAF7EE" height="34.1328" rx="12.5" ry="12.5" style="stroke:#2E7D4F;stroke-width:0.5;" width="153.248" x="81.9609" y="833.0557"/><text fill="#18392A" font-family="sans-serif" font-size="12" lengthAdjust="spacing" textLength="133.248" x="91.9609" y="854.6572">X&#225;c nh&#7853;n k&#7871;t qu&#7843; x&#7917; l&#253;</text><rect fill="#EAF7EE" height="34.1328" rx="12.5" ry="12.5" style="stroke:#2E7D4F;stroke-width:0.5;" width="206.0352" x="55.5674" y="1157.8525"/><text fill="#18392A" font-family="sans-serif" font-size="12" lengthAdjust="spacing" textLength="186.0352" x="65.5674" y="1179.4541">Xem tr&#7841;ng th&#225;i b&#225;o c&#225;o &#273;&#227; x&#7917; l&#253;</text><ellipse cx="158.585" cy="1222.9854" fill="none" rx="11" ry="11" style="stroke:#222222;stroke-width:1;"/><ellipse cx="158.585" cy="1222.9854" fill="#222222" rx="6" ry="6" style="stroke:#222222;stroke-width:1;"/><line style="stroke:#000000;stroke-width:1.5;" x1="15" x2="15" y1="49.7852" y2="1233.9854"/><rect fill="#EAF7EE" height="48.2656" rx="12.5" ry="12.5" style="stroke:#2E7D4F;stroke-width:0.5;" width="284.2695" x="279.1699" y="224.25"/><text fill="#18392A" font-family="sans-serif" font-size="12" lengthAdjust="spacing" textLength="264.2695" x="289.1699" y="245.8516">Hi&#7875;n th&#7883; n&#7897;i dung b&#225;o c&#225;o, y&#234;u c&#7847;u li&#234;n quan,</text><text fill="#18392A" font-family="sans-serif" font-size="12" lengthAdjust="spacing" textLength="185.6602" x="289.1699" y="259.9844">b&#7857;ng ch&#7913;ng v&#224; l&#7883;ch s&#7917; giao d&#7883;ch</text><rect fill="#EAF7EE" height="34.1328" rx="12.5" ry="12.5" style="stroke:#2E7D4F;stroke-width:0.5;" width="281.4395" x="280.585" y="449.2588"/><text fill="#18392A" font-family="sans-serif" font-size="12" lengthAdjust="spacing" textLength="261.4395" x="290.585" y="470.8604">Chuy&#7875;n b&#225;o c&#225;o sang tr&#7841;ng th&#225;i ch&#7901; b&#7893; sung</text><rect fill="#EAF7EE" height="34.1328" rx="12.5" ry="12.5" style="stroke:#2E7D4F;stroke-width:0.5;" width="203.5742" x="319.5176" y="503.3916"/><text fill="#18392A" font-family="sans-serif" font-size="12" lengthAdjust="spacing" textLength="183.5742" x="329.5176" y="524.9932">Th&#244;ng b&#225;o cho ng&#432;&#7901;i li&#234;n quan</text><rect fill="#EAF7EE" height="34.1328" rx="12.5" ry="12.5" style="stroke:#2E7D4F;stroke-width:0.5;" width="150.1895" x="346.21" y="626.6572"/><text fill="#18392A" font-family="sans-serif" font-size="12" lengthAdjust="spacing" textLength="130.1895" x="356.21" y="648.2588">L&#432;u th&#244;ng tin b&#7893; sung</text><rect fill="#EAF7EE" height="34.1328" rx="12.5" ry="12.5" style="stroke:#2E7D4F;stroke-width:0.5;" width="180.5293" x="331.04" y="887.1885"/><text fill="#18392A" font-family="sans-serif" font-size="12" lengthAdjust="spacing" textLength="160.5293" x="341.04" y="908.79">L&#432;u k&#7871;t lu&#7853;n v&#224; ng&#432;&#7901;i x&#7917; l&#253;</text><rect fill="#EAF7EE" height="34.1328" rx="12.5" ry="12.5" style="stroke:#2E7D4F;stroke-width:0.5;" width="270.1777" x="286.2158" y="941.3213"/><text fill="#18392A" font-family="sans-serif" font-size="12" lengthAdjust="spacing" textLength="250.1777" x="296.2158" y="962.9229">C&#7853;p nh&#7853;t tr&#7841;ng th&#225;i b&#225;o c&#225;o th&#224;nh &#273;&#227; x&#7917; l&#253;</text><rect fill="#EAF7EE" height="34.1328" rx="12.5" ry="12.5" style="stroke:#2E7D4F;stroke-width:0.5;" width="244.877" x="298.8662" y="995.4541"/><text fill="#18392A" font-family="sans-serif" font-size="12" lengthAdjust="spacing" textLength="224.877" x="308.8662" y="1017.0557">&#193;p d&#7909;ng bi&#7879;n ph&#225;p &#273;&#227; &#273;&#432;&#7907;c ph&#234; duy&#7879;t</text><rect fill="#EAF7EE" height="34.1328" rx="12.5" ry="12.5" style="stroke:#2E7D4F;stroke-width:0.5;" width="218.3457" x="312.1318" y="1049.5869"/><text fill="#18392A" font-family="sans-serif" font-size="12" lengthAdjust="spacing" textLength="198.3457" x="322.1318" y="1071.1885">G&#7917;i k&#7871;t qu&#7843; cho c&#225;c b&#234;n li&#234;n quan</text><line style="stroke:#000000;stroke-width:1.5;" x1="273.1699" x2="273.1699" y1="49.7852" y2="1233.9854"/><rect fill="#EAF7EE" height="34.1328" rx="12.5" ry="12.5" style="stroke:#2E7D4F;stroke-width:0.5;" width="279.9277" x="573.4395" y="572.5244"/><text fill="#18392A" font-family="sans-serif" font-size="12" lengthAdjust="spacing" textLength="259.9277" x="583.4395" y="594.126">Nh&#7853;n y&#234;u c&#7847;u v&#224; cung c&#7845;p th&#244;ng tin b&#7893; sung</text><rect fill="#EAF7EE" height="34.1328" rx="12.5" ry="12.5" style="stroke:#2E7D4F;stroke-width:0.5;" width="179.873" x="623.4668" y="1103.7197"/><text fill="#18392A" font-family="sans-serif" font-size="12" lengthAdjust="spacing" textLength="159.873" x="633.4668" y="1125.3213">Nh&#7853;n k&#7871;t qu&#7843; x&#7917; l&#253; b&#225;o c&#225;o</text><line style="stroke:#000000;stroke-width:1.5;" x1="567.4395" x2="567.4395" y1="49.7852" y2="1233.9854"/><line style="stroke:#000000;stroke-width:1.5;" x1="857.3672" x2="857.3672" y1="49.7852" y2="1233.9854"/><line style="stroke:#3E6250;stroke-width:1;" x1="158.585" x2="158.585" y1="95.9844" y2="115.9844"/><polygon fill="#3E6250" points="154.585,105.9844,158.585,115.9844,162.585,105.9844,158.585,109.9844" style="stroke:#3E6250;stroke-width:1;"/><line style="stroke:#3E6250;stroke-width:1;" x1="158.585" x2="158.585" y1="150.1172" y2="170.1172"/><polygon fill="#3E6250" points="154.585,160.1172,158.585,170.1172,162.585,160.1172,158.585,164.1172" style="stroke:#3E6250;stroke-width:1;"/><line style="stroke:#3E6250;stroke-width:1;" x1="158.585" x2="158.585" y1="370.6484" y2="395.126"/><polygon fill="#3E6250" points="154.585,385.126,158.585,395.126,162.585,385.126,158.585,389.126" style="stroke:#3E6250;stroke-width:1;"/><line style="stroke:#3E6250;stroke-width:1;" x1="84.3958" x2="34" y1="358.6484" y2="358.6484"/><polygon fill="#3E6250" points="30,545.0244,34,555.0244,38,545.0244,34,549.0244" style="stroke:#3E6250;stroke-width:1;"/><line style="stroke:#3E6250;stroke-width:1;" x1="34" x2="34" y1="358.6484" y2="746.9229"/><line style="stroke:#3E6250;stroke-width:1;" x1="34" x2="146.585" y1="746.9229" y2="746.9229"/><polygon fill="#3E6250" points="136.585,742.9229,146.585,746.9229,136.585,750.9229,140.585,746.9229" style="stroke:#3E6250;stroke-width:1;"/><line style="stroke:#3E6250;stroke-width:1;" x1="158.585" x2="158.585" y1="714.9229" y2="734.9229"/><polygon fill="#3E6250" points="154.585,724.9229,158.585,734.9229,162.585,724.9229,158.585,728.9229" style="stroke:#3E6250;stroke-width:1;"/><line style="stroke:#3E6250;stroke-width:1;" x1="158.585" x2="158.585" y1="326.6484" y2="346.6484"/><polygon fill="#3E6250" points="154.585,336.6484,158.585,346.6484,162.585,336.6484,158.585,340.6484" style="stroke:#3E6250;stroke-width:1;"/><line style="stroke:#3E6250;stroke-width:1;" x1="158.585" x2="158.585" y1="758.9229" y2="778.9229"/><polygon fill="#3E6250" points="154.585,768.9229,158.585,778.9229,162.585,768.9229,158.585,772.9229" style="stroke:#3E6250;stroke-width:1;"/><line style="stroke:#3E6250;stroke-width:1;" x1="158.585" x2="158.585" y1="813.0557" y2="833.0557"/><polygon fill="#3E6250" points="154.585,823.0557,158.585,833.0557,162.585,823.0557,158.585,827.0557" style="stroke:#3E6250;stroke-width:1;"/><line style="stroke:#3E6250;stroke-width:1;" x1="158.585" x2="158.585" y1="1191.9854" y2="1211.9854"/><polygon fill="#3E6250" points="154.585,1201.9854,158.585,1211.9854,162.585,1201.9854,158.585,1205.9854" style="stroke:#3E6250;stroke-width:1;"/><line style="stroke:#3E6250;stroke-width:1;" x1="421.3047" x2="421.3047" y1="483.3916" y2="503.3916"/><polygon fill="#3E6250" points="417.3047,493.3916,421.3047,503.3916,425.3047,493.3916,421.3047,497.3916" style="stroke:#3E6250;stroke-width:1;"/><line style="stroke:#3E6250;stroke-width:1;" x1="421.3047" x2="421.3047" y1="921.3213" y2="941.3213"/><polygon fill="#3E6250" points="417.3047,931.3213,421.3047,941.3213,425.3047,931.3213,421.3047,935.3213" style="stroke:#3E6250;stroke-width:1;"/><line style="stroke:#3E6250;stroke-width:1;" x1="421.3047" x2="421.3047" y1="975.4541" y2="995.4541"/><polygon fill="#3E6250" points="417.3047,985.4541,421.3047,995.4541,425.3047,985.4541,421.3047,989.4541" style="stroke:#3E6250;stroke-width:1;"/><line style="stroke:#3E6250;stroke-width:1;" x1="421.3047" x2="421.3047" y1="1029.5869" y2="1049.5869"/><polygon fill="#3E6250" points="417.3047,1039.5869,421.3047,1049.5869,425.3047,1039.5869,421.3047,1043.5869" style="stroke:#3E6250;stroke-width:1;"/><line style="stroke:#3E6250;stroke-width:1;" x1="158.585" x2="158.585" y1="204.25" y2="209.25"/><line style="stroke:#3E6250;stroke-width:1;" x1="158.585" x2="421.3047" y1="209.25" y2="209.25"/><line style="stroke:#3E6250;stroke-width:1;" x1="421.3047" x2="421.3047" y1="209.25" y2="224.25"/><polygon fill="#3E6250" points="417.3047,214.25,421.3047,224.25,425.3047,214.25,421.3047,218.25" style="stroke:#3E6250;stroke-width:1;"/><line style="stroke:#3E6250;stroke-width:1;" x1="421.3047" x2="421.3047" y1="272.5156" y2="277.5156"/><line style="stroke:#3E6250;stroke-width:1;" x1="421.3047" x2="158.585" y1="277.5156" y2="277.5156"/><line style="stroke:#3E6250;stroke-width:1;" x1="158.585" x2="158.585" y1="277.5156" y2="292.5156"/><polygon fill="#3E6250" points="154.585,282.5156,158.585,292.5156,162.585,282.5156,158.585,286.5156" style="stroke:#3E6250;stroke-width:1;"/><line style="stroke:#3E6250;stroke-width:1;" x1="158.585" x2="158.585" y1="429.2588" y2="434.2588"/><line style="stroke:#3E6250;stroke-width:1;" x1="158.585" x2="421.3047" y1="434.2588" y2="434.2588"/><line style="stroke:#3E6250;stroke-width:1;" x1="421.3047" x2="421.3047" y1="434.2588" y2="449.2588"/><polygon fill="#3E6250" points="417.3047,439.2588,421.3047,449.2588,425.3047,439.2588,421.3047,443.2588" style="stroke:#3E6250;stroke-width:1;"/><line style="stroke:#3E6250;stroke-width:1;" x1="421.3047" x2="421.3047" y1="537.5244" y2="555.0244"/><line style="stroke:#3E6250;stroke-width:1;" x1="421.3047" x2="713.4033" y1="555.0244" y2="555.0244"/><line style="stroke:#3E6250;stroke-width:1;" x1="713.4033" x2="713.4033" y1="555.0244" y2="572.5244"/><polygon fill="#3E6250" points="709.4033,562.5244,713.4033,572.5244,717.4033,562.5244,713.4033,566.5244" style="stroke:#3E6250;stroke-width:1;"/><line style="stroke:#3E6250;stroke-width:1;" x1="713.4033" x2="713.4033" y1="606.6572" y2="611.6572"/><line style="stroke:#3E6250;stroke-width:1;" x1="713.4033" x2="421.3047" y1="611.6572" y2="611.6572"/><line style="stroke:#3E6250;stroke-width:1;" x1="421.3047" x2="421.3047" y1="611.6572" y2="626.6572"/><polygon fill="#3E6250" points="417.3047,616.6572,421.3047,626.6572,425.3047,616.6572,421.3047,620.6572" style="stroke:#3E6250;stroke-width:1;"/><line style="stroke:#3E6250;stroke-width:1;" x1="421.3047" x2="421.3047" y1="660.79" y2="665.79"/><line style="stroke:#3E6250;stroke-width:1;" x1="421.3047" x2="158.585" y1="665.79" y2="665.79"/><line style="stroke:#3E6250;stroke-width:1;" x1="158.585" x2="158.585" y1="665.79" y2="680.79"/><polygon fill="#3E6250" points="154.585,670.79,158.585,680.79,162.585,670.79,158.585,674.79" style="stroke:#3E6250;stroke-width:1;"/><line style="stroke:#3E6250;stroke-width:1;" x1="158.585" x2="158.585" y1="867.1885" y2="872.1885"/><line style="stroke:#3E6250;stroke-width:1;" x1="158.585" x2="421.3047" y1="872.1885" y2="872.1885"/><line style="stroke:#3E6250;stroke-width:1;" x1="421.3047" x2="421.3047" y1="872.1885" y2="887.1885"/><polygon fill="#3E6250" points="417.3047,877.1885,421.3047,887.1885,425.3047,877.1885,421.3047,881.1885" style="stroke:#3E6250;stroke-width:1;"/><line style="stroke:#3E6250;stroke-width:1;" x1="421.3047" x2="421.3047" y1="1083.7197" y2="1088.7197"/><line style="stroke:#3E6250;stroke-width:1;" x1="421.3047" x2="713.4033" y1="1088.7197" y2="1088.7197"/><line style="stroke:#3E6250;stroke-width:1;" x1="713.4033" x2="713.4033" y1="1088.7197" y2="1103.7197"/><polygon fill="#3E6250" points="709.4033,1093.7197,713.4033,1103.7197,717.4033,1093.7197,713.4033,1097.7197" style="stroke:#3E6250;stroke-width:1;"/><line style="stroke:#3E6250;stroke-width:1;" x1="713.4033" x2="713.4033" y1="1137.8525" y2="1142.8525"/><line style="stroke:#3E6250;stroke-width:1;" x1="713.4033" x2="158.585" y1="1142.8525" y2="1142.8525"/><line style="stroke:#3E6250;stroke-width:1;" x1="158.585" x2="158.585" y1="1142.8525" y2="1157.8525"/><polygon fill="#3E6250" points="154.585,1147.8525,158.585,1157.8525,162.585,1147.8525,158.585,1151.8525" style="stroke:#3E6250;stroke-width:1;"/><text fill="#000000" font-family="sans-serif" font-size="18" lengthAdjust="spacing" textLength="112.6758" x="87.7471" y="67.1875">Qu&#7843;n tr&#7883; vi&#234;n</text><text fill="#000000" font-family="sans-serif" font-size="18" lengthAdjust="spacing" textLength="80.3057" x="380.1519" y="67.1875">H&#7879; th&#7889;ng</text><text fill="#000000" font-family="sans-serif" font-size="18" lengthAdjust="spacing" textLength="191.2148" x="616.7959" y="67.1875">Ng&#432;&#7901;i d&#249;ng li&#234;n quan</text><?plantuml-src VLD1Izn05BxFhtYb5uKMwcfTpHwAhhiLR8L22nvwcKtYPZ2PYSbaxL9xa1uyIA5BwQ67KXUHKa6mj9Scb1woxF-OVz8toUgEg-ibOTwyxtllVT-RUs54sm45dtP58Y4EN4av9P99tuLNzSeIF8GjbPs3d_-5LjuNOEjFHwMd70OzbHqG4kym7jA81j2Yzaux4Wbtwi8N4UnvJBh6VUnHH-mntePjwiVc3RKbwp3PXRS4O7M2vdvZfLbjDFIDY1mt6aKhZUhQGXEZQum6WZitOCrcSs5jqKWmqQlLwlASHZS5bwFOtDByScK5OojH9FP6mVd6OkNn8_AEaFqNYKfFECX8PKVGOVaPtoUnf94ardELVGE7SW_Yl6zxOwrgnAfxAll08L3P5sc8Q6FuAxmPgLj3_dML7OB4S8-tzucrpbJsdXU18-28Pk0aADuLnGFevcS9s2hzde2l-u7TXF87htbBfJynKvVuWVzEVWm-ic1ZiQxNPbI0KmHgK-QoDdJr08CKEyX_8ujal62wJbuZR1jcwjW3nvliCyIwnp7aoImUN8uf-QzPrDPwYXqmi_FRK3NCdD03eNKlwHQQZ5MCgGP4AksN-3uR2Nl5ggciboLpYVC4yFRm0hEO8LjHSlCoxkH_C7zyMzJVz5HwpitUjHwsRXsFfw6frBNwDqTvDhn8fgVVvWY2jjm0VKnnHcJw1F6mRowQYsyAPZOApbdYSeTjJpDty75uGG6jtL7fFmb-KinLc8ks7t88KSdGM4vh2zSQU3b_2ThLn7VjRp7YZG9NoXlak3tdOSak9ymSEutdOtnVWrvkLhNoWr2lygbsr-ozo1lqTB4JMyVEyFNWzXnA19KxQCwXbyBMCxQqu-PMaBkMud8bRfF4z6QA3zhGQVDE31fB4Vu7?></g></svg>