<?plantuml 1.2026.2?><svg xmlns="http://www.w3.org/2000/svg" xmlns:xlink="http://www.w3.org/1999/xlink" contentStyleType="text/css" data-diagram-type="ACTIVITY" height="2270.625px" preserveAspectRatio="none" style="width:2085px;height:2270px;background:#FFFFFF;" version="1.1" viewBox="0 0 2085 2270" width="2085px" zoomAndPan="magnify"><title>ACTIVITY DIAGRAM - T&#204;M KI&#7870;M V&#192; NH&#7852;N Y&#202;U C&#7846;U (UC18, UC09, UC19)</title><defs/><g><g class="title" data-source-line="2"><text fill="#000000" font-family="sans-serif" font-size="26.25" font-weight="bold" lengthAdjust="spacing" textLength="965.9308" x="556.7523" y="62.8784">ACTIVITY DIAGRAM - T&#204;M KI&#7870;M V&#192; NH&#7852;N Y&#202;U C&#7846;U (UC18, UC09, UC19)</text></g><rect fill="none" height="39.7485" style="stroke:none;stroke-width:1.875;" width="2023.1854" x="28.125" y="93.3472"/><ellipse cx="463.9691" cy="161.2207" fill="#28775D" rx="18.75" ry="18.75" style="stroke:#222222;stroke-width:1.875;"/><rect fill="#F3FBF7" height="90.498" rx="23.4375" ry="23.4375" style="stroke:#2F8065;stroke-width:0.9375;" width="246.7676" x="340.5853" y="217.4707"/><text fill="#172033" font-family="sans-serif" font-size="22.5" lengthAdjust="spacing" textLength="155.3796" x="359.3353" y="257.9736">M&#7903; ch&#7913;c n&#259;ng</text><text fill="#172033" font-family="sans-serif" font-size="22.5" lengthAdjust="spacing" textLength="209.2676" x="359.3353" y="284.4727">"T&#236;m ki&#7871;m y&#234;u c&#7847;u"</text><rect fill="#F3FBF7" height="90.498" rx="23.4375" ry="23.4375" style="stroke:#2F8065;stroke-width:0.9375;" width="347.6111" x="290.1636" y="345.4688"/><text fill="#172033" font-family="sans-serif" font-size="22.5" lengthAdjust="spacing" textLength="310.1111" x="308.9136" y="385.9717">Nh&#7853;p khu v&#7921;c, kho&#7843;ng c&#225;ch,</text><text fill="#172033" font-family="sans-serif" font-size="22.5" lengthAdjust="spacing" textLength="292.6538" x="308.9136" y="412.4707">th&#7901;i gian ho&#7863;c m&#7913;c chi ph&#237;</text><rect fill="#F3FBF7" height="63.999" rx="23.4375" ry="23.4375" style="stroke:#2F8065;stroke-width:0.9375;" width="235.5835" x="346.1774" y="729.4629"/><text fill="#172033" font-family="sans-serif" font-size="22.5" lengthAdjust="spacing" textLength="198.0835" x="364.9274" y="769.9658">Ch&#7885;n m&#7897;t y&#234;u c&#7847;u</text><polygon fill="#FFF7E8" points="352.8932,958.96,575.045,958.96,597.545,981.46,575.045,1003.96,352.8932,1003.96,330.3932,981.46,352.8932,958.96" style="stroke:#C17A1B;stroke-width:0.9375;"/><text fill="#172033" font-family="sans-serif" font-size="20.625" lengthAdjust="spacing" textLength="222.1518" x="352.8932" y="989.2548">Mu&#7889;n nh&#7853;n th&#7921;c hi&#7879;n?</text><text fill="#000000" font-family="sans-serif" font-size="20.625" lengthAdjust="spacing" textLength="64.5941" x="265.7991" y="977.1094">Kh&#244;ng</text><text fill="#000000" font-family="sans-serif" font-size="20.625" lengthAdjust="spacing" textLength="26.9394" x="597.545" y="977.1094">C&#243;</text><rect fill="#F3FBF7" height="63.999" rx="23.4375" ry="23.4375" style="stroke:#2F8065;stroke-width:0.9375;" width="347.1716" x="112.6373" y="1022.71"/><text fill="#172033" font-family="sans-serif" font-size="22.5" lengthAdjust="spacing" textLength="309.6716" x="131.3873" y="1063.2129">Quay l&#7841;i danh s&#225;ch t&#236;m ki&#7871;m</text><ellipse cx="286.2231" cy="1144.834" fill="none" rx="20.625" ry="20.625" style="stroke:#222222;stroke-width:1.875;"/><ellipse cx="286.2231" cy="1144.834" fill="#222222" rx="11.25" ry="11.25" style="stroke:#222222;stroke-width:1.875;"/><rect fill="#F3FBF7" height="63.999" rx="23.4375" ry="23.4375" style="stroke:#2F8065;stroke-width:0.9375;" width="288.8123" x="497.309" y="1022.71"/><text fill="#172033" font-family="sans-serif" font-size="22.5" lengthAdjust="spacing" textLength="251.3123" x="516.059" y="1063.2129">X&#225;c nh&#7853;n nh&#7853;n y&#234;u c&#7847;u</text><rect fill="#F3FBF7" height="63.999" rx="23.4375" ry="23.4375" style="stroke:#2F8065;stroke-width:0.9375;" width="377.9004" x="39.375" y="1722.4512"/><text fill="#172033" font-family="sans-serif" font-size="22.5" lengthAdjust="spacing" textLength="340.4004" x="58.125" y="1762.9541">Ti&#7871;p t&#7909;c t&#236;m ki&#7871;m y&#234;u c&#7847;u kh&#225;c</text><ellipse cx="228.3252" cy="1871.0742" fill="none" rx="20.625" ry="20.625" style="stroke:#222222;stroke-width:1.875;"/><ellipse cx="228.3252" cy="1871.0742" fill="#222222" rx="11.25" ry="11.25" style="stroke:#222222;stroke-width:1.875;"/><rect fill="#F3FBF7" height="90.498" rx="23.4375" ry="23.4375" style="stroke:#2F8065;stroke-width:0.9375;" width="360.2234" x="283.8574" y="2079.9463"/><text fill="#172033" font-family="sans-serif" font-size="22.5" lengthAdjust="spacing" textLength="322.7234" x="302.6074" y="2120.4492">Xem y&#234;u c&#7847;u trong danh s&#225;ch</text><text fill="#172033" font-family="sans-serif" font-size="22.5" lengthAdjust="spacing" textLength="197.5012" x="302.6074" y="2146.9482">"Y&#234;u c&#7847;u &#273;&#227; nh&#7853;n"</text><ellipse cx="463.9691" cy="2228.5693" fill="none" rx="20.625" ry="20.625" style="stroke:#222222;stroke-width:1.875;"/><ellipse cx="463.9691" cy="2228.5693" fill="#222222" rx="11.25" ry="11.25" style="stroke:#222222;stroke-width:1.875;"/><line style="stroke:#000000;stroke-width:2.8125;" x1="28.125" x2="28.125" y1="93.3472" y2="2249.1943"/><rect fill="#F3FBF7" height="90.498" rx="23.4375" ry="23.4375" style="stroke:#2F8065;stroke-width:0.9375;" width="530.7092" x="946.3184" y="473.4668"/><text fill="#172033" font-family="sans-serif" font-size="22.5" lengthAdjust="spacing" textLength="419.8206" x="965.0684" y="513.9697">L&#7845;y c&#225;c y&#234;u c&#7847;u c&#243; tr&#7841;ng th&#225;i PENDING</text><text fill="#172033" font-family="sans-serif" font-size="22.5" lengthAdjust="spacing" textLength="493.2092" x="965.0684" y="540.4688">v&#224; lo&#7841;i b&#7887; y&#234;u c&#7847;u do ch&#237;nh ng&#432;&#7901;i nh&#7853;n &#273;&#259;ng</text><rect fill="#F3FBF7" height="90.498" rx="23.4375" ry="23.4375" style="stroke:#2F8065;stroke-width:0.9375;" width="338.5583" x="1042.3938" y="601.4648"/><text fill="#172033" font-family="sans-serif" font-size="22.5" lengthAdjust="spacing" textLength="258.5303" x="1061.1438" y="641.9678">L&#7885;c, s&#7855;p x&#7871;p v&#224; hi&#7875;n th&#7883;</text><text fill="#172033" font-family="sans-serif" font-size="22.5" lengthAdjust="spacing" textLength="301.0583" x="1061.1438" y="668.4668">danh s&#225;ch y&#234;u c&#7847;u ph&#249; h&#7907;p</text><rect fill="#F3FBF7" height="90.498" rx="23.4375" ry="23.4375" style="stroke:#2F8065;stroke-width:0.9375;" width="391.2488" x="1016.0486" y="830.9619"/><text fill="#172033" font-family="sans-serif" font-size="22.5" lengthAdjust="spacing" textLength="292.2803" x="1034.7986" y="871.4648">Ki&#7875;m tra quy&#7873;n truy c&#7853;p v&#224;</text><text fill="#172033" font-family="sans-serif" font-size="22.5" lengthAdjust="spacing" textLength="353.7488" x="1034.7986" y="897.9639">hi&#7875;n th&#7883; th&#244;ng tin chi ti&#7871;t (UC09)</text><rect fill="#F3FBF7" height="90.498" rx="23.4375" ry="23.4375" style="stroke:#2F8065;stroke-width:0.9375;" width="365.9473" x="1028.6993" y="1202.959"/><text fill="#172033" font-family="sans-serif" font-size="22.5" lengthAdjust="spacing" textLength="328.4473" x="1047.4493" y="1243.4619">Ki&#7875;m tra l&#7841;i tr&#7841;ng th&#225;i y&#234;u c&#7847;u</text><text fill="#172033" font-family="sans-serif" font-size="22.5" lengthAdjust="spacing" textLength="323.075" x="1047.4493" y="1269.9609">trong m&#7897;t thao t&#225;c nguy&#234;n t&#7917;</text><polygon fill="#FFF7E8" points="1098.8951,1330.957,1324.4508,1330.957,1346.9508,1353.457,1324.4508,1375.957,1098.8951,1375.957,1076.3951,1353.457,1098.8951,1330.957" style="stroke:#C17A1B;stroke-width:0.9375;"/><text fill="#172033" font-family="sans-serif" font-size="20.625" lengthAdjust="spacing" textLength="225.5557" x="1098.8951" y="1361.2518">Y&#234;u c&#7847;u c&#242;n PENDING?</text><text fill="#000000" font-family="sans-serif" font-size="20.625" lengthAdjust="spacing" textLength="64.5941" x="1011.801" y="1349.1064">Kh&#244;ng</text><text fill="#000000" font-family="sans-serif" font-size="20.625" lengthAdjust="spacing" textLength="26.9394" x="1346.9508" y="1349.1064">C&#243;</text><rect fill="#F3FBF7" height="90.498" rx="23.4375" ry="23.4375" style="stroke:#2F8065;stroke-width:0.9375;" width="342.3157" x="804.8712" y="1413.457"/><text fill="#172033" font-family="sans-serif" font-size="22.5" lengthAdjust="spacing" textLength="304.8157" x="823.6212" y="1453.96">Th&#244;ng b&#225;o y&#234;u c&#7847;u &#273;&#227; &#273;&#432;&#7907;c</text><text fill="#172033" font-family="sans-serif" font-size="22.5" lengthAdjust="spacing" textLength="184.4824" x="823.6212" y="1480.459">ng&#432;&#7901;i kh&#225;c nh&#7853;n</text><rect fill="#F3FBF7" height="90.498" rx="23.4375" ry="23.4375" style="stroke:#2F8065;stroke-width:0.9375;" width="286.2305" x="832.9138" y="1567.9541"/><text fill="#172033" font-family="sans-serif" font-size="22.5" lengthAdjust="spacing" textLength="248.7305" x="851.6638" y="1608.457">C&#7853;p nh&#7853;t l&#7841;i danh s&#225;ch</text><text fill="#172033" font-family="sans-serif" font-size="22.5" lengthAdjust="spacing" textLength="192.7771" x="851.6638" y="1634.9561">y&#234;u c&#7847;u &#273;ang ch&#7901;</text><rect fill="#F3FBF7" height="63.999" rx="23.4375" ry="23.4375" style="stroke:#2F8065;stroke-width:0.9375;" width="350.4016" x="1272.1161" y="1413.457"/><text fill="#172033" font-family="sans-serif" font-size="22.5" lengthAdjust="spacing" textLength="312.9016" x="1290.8661" y="1453.96">G&#225;n ng&#432;&#7901;i nh&#7853;n cho y&#234;u c&#7847;u</text><rect fill="#F3FBF7" height="90.498" rx="23.4375" ry="23.4375" style="stroke:#2F8065;stroke-width:0.9375;" width="413.5291" x="1240.5524" y="1541.4551"/><text fill="#172033" font-family="sans-serif" font-size="22.5" lengthAdjust="spacing" textLength="376.0291" x="1259.3024" y="1581.958">Chuy&#7875;n tr&#7841;ng th&#225;i sang ACCEPTED</text><text fill="#172033" font-family="sans-serif" font-size="22.5" lengthAdjust="spacing" textLength="259.8157" x="1259.3024" y="1608.457">v&#224; l&#432;u l&#7883;ch s&#7917; tr&#7841;ng th&#225;i</text><rect fill="#F3FBF7" height="63.999" rx="23.4375" ry="23.4375" style="stroke:#2F8065;stroke-width:0.9375;" width="489.6753" x="1202.4792" y="1695.9521"/><text fill="#172033" font-family="sans-serif" font-size="22.5" lengthAdjust="spacing" textLength="452.1753" x="1221.2292" y="1736.4551">Lo&#7841;i b&#7887; y&#234;u c&#7847;u kh&#7887;i danh s&#225;ch ch&#7901; nh&#7853;n</text><rect fill="#F3FBF7" height="90.498" rx="23.4375" ry="23.4375" style="stroke:#2F8065;stroke-width:0.9375;" width="404.707" x="1244.9634" y="1823.9502"/><text fill="#172033" font-family="sans-serif" font-size="22.5" lengthAdjust="spacing" textLength="325.2393" x="1263.7134" y="1864.4531">T&#7841;o cu&#7897;c trao &#273;&#7893;i cho hai b&#234;n</text><text fill="#172033" font-family="sans-serif" font-size="22.5" lengthAdjust="spacing" textLength="367.207" x="1263.7134" y="1890.9521">v&#224; g&#7917;i th&#244;ng b&#225;o &#273;&#7871;n ng&#432;&#7901;i &#273;&#259;ng</text><line style="stroke:#000000;stroke-width:2.8125;" x1="793.6212" x2="793.6212" y1="93.3472" y2="2249.1943"/><rect fill="#F3FBF7" height="90.498" rx="23.4375" ry="23.4375" style="stroke:#2F8065;stroke-width:0.9375;" width="303.7207" x="1723.765" y="1951.9482"/><text fill="#172033" font-family="sans-serif" font-size="22.5" lengthAdjust="spacing" textLength="266.2207" x="1742.515" y="1992.4512">Nh&#7853;n th&#244;ng b&#225;o y&#234;u c&#7847;u</text><text fill="#172033" font-family="sans-serif" font-size="22.5" lengthAdjust="spacing" textLength="241.3257" x="1742.515" y="2018.9502">&#273;&#227; c&#243; ng&#432;&#7901;i th&#7921;c hi&#7879;n</text><line style="stroke:#000000;stroke-width:2.8125;" x1="1699.6545" x2="1699.6545" y1="93.3472" y2="2249.1943"/><line style="stroke:#000000;stroke-width:2.8125;" x1="2047.8461" x2="2047.8461" y1="93.3472" y2="2249.1943"/><line style="stroke:#64748B;stroke-width:2.25;" x1="463.9691" x2="463.9691" y1="179.9707" y2="217.4707"/><polygon fill="#64748B" points="456.4691,198.7207,463.9691,217.4707,471.4691,198.7207,463.9691,206.2207" style="stroke:#64748B;stroke-width:1.875;"/><line style="stroke:#64748B;stroke-width:2.25;" x1="463.9691" x2="463.9691" y1="307.9688" y2="345.4688"/><polygon fill="#64748B" points="456.4691,326.7188,463.9691,345.4688,471.4691,326.7188,463.9691,334.2188" style="stroke:#64748B;stroke-width:1.875;"/><line style="stroke:#64748B;stroke-width:2.25;" x1="286.2231" x2="286.2231" y1="1086.709" y2="1124.209"/><polygon fill="#64748B" points="278.7231,1105.459,286.2231,1124.209,293.7231,1105.459,286.2231,1112.959" style="stroke:#64748B;stroke-width:1.875;"/><line style="stroke:#64748B;stroke-width:2.25;" x1="330.3932" x2="286.2231" y1="981.46" y2="981.46"/><line style="stroke:#64748B;stroke-width:2.25;" x1="286.2231" x2="286.2231" y1="981.46" y2="1022.71"/><polygon fill="#64748B" points="278.7231,1003.96,286.2231,1022.71,293.7231,1003.96,286.2231,1011.46" style="stroke:#64748B;stroke-width:1.875;"/><line style="stroke:#64748B;stroke-width:2.25;" x1="597.545" x2="641.7151" y1="981.46" y2="981.46"/><line style="stroke:#64748B;stroke-width:2.25;" x1="641.7151" x2="641.7151" y1="981.46" y2="1022.71"/><polygon fill="#64748B" points="634.2151,1003.96,641.7151,1022.71,649.2151,1003.96,641.7151,1011.46" style="stroke:#64748B;stroke-width:1.875;"/><line style="stroke:#64748B;stroke-width:2.25;" x1="641.7151" x2="641.7151" y1="1086.709" y2="1174.834"/><line style="stroke:#64748B;stroke-width:2.25;" x1="641.7151" x2="1211.673" y1="1174.834" y2="1174.834"/><line style="stroke:#64748B;stroke-width:2.25;" x1="1211.673" x2="1211.673" y1="1174.834" y2="1202.959"/><polygon fill="#64748B" points="1204.173,1184.209,1211.673,1202.959,1219.173,1184.209,1211.673,1191.709" style="stroke:#64748B;stroke-width:1.875;"/><line style="stroke:#64748B;stroke-width:2.25;" x1="228.3252" x2="228.3252" y1="1786.4502" y2="1850.4492"/><polygon fill="#64748B" points="220.8252,1831.6992,228.3252,1850.4492,235.8252,1831.6992,228.3252,1839.1992" style="stroke:#64748B;stroke-width:1.875;"/><line style="stroke:#64748B;stroke-width:2.25;" x1="463.9691" x2="463.9691" y1="2170.4443" y2="2207.9443"/><polygon fill="#64748B" points="456.4691,2189.1943,463.9691,2207.9443,471.4691,2189.1943,463.9691,2196.6943" style="stroke:#64748B;stroke-width:1.875;"/><line style="stroke:#64748B;stroke-width:2.25;" x1="1211.673" x2="1211.673" y1="563.9648" y2="601.4648"/><polygon fill="#64748B" points="1204.173,582.7148,1211.673,601.4648,1219.173,582.7148,1211.673,590.2148" style="stroke:#64748B;stroke-width:1.875;"/><line style="stroke:#64748B;stroke-width:2.25;" x1="976.0291" x2="976.0291" y1="1503.9551" y2="1567.9541"/><polygon fill="#64748B" points="968.5291,1549.2041,976.0291,1567.9541,983.5291,1549.2041,976.0291,1556.7041" style="stroke:#64748B;stroke-width:1.875;"/><line style="stroke:#64748B;stroke-width:2.25;" x1="1447.3169" x2="1447.3169" y1="1477.4561" y2="1541.4551"/><polygon fill="#64748B" points="1439.8169,1522.7051,1447.3169,1541.4551,1454.8169,1522.7051,1447.3169,1530.2051" style="stroke:#64748B;stroke-width:1.875;"/><line style="stroke:#64748B;stroke-width:2.25;" x1="1447.3169" x2="1447.3169" y1="1631.9531" y2="1695.9521"/><polygon fill="#64748B" points="1439.8169,1677.2021,1447.3169,1695.9521,1454.8169,1677.2021,1447.3169,1684.7021" style="stroke:#64748B;stroke-width:1.875;"/><line style="stroke:#64748B;stroke-width:2.25;" x1="1447.3169" x2="1447.3169" y1="1759.9512" y2="1823.9502"/><polygon fill="#64748B" points="1439.8169,1805.2002,1447.3169,1823.9502,1454.8169,1805.2002,1447.3169,1812.7002" style="stroke:#64748B;stroke-width:1.875;"/><line style="stroke:#64748B;stroke-width:2.25;" x1="1076.3951" x2="976.0291" y1="1353.457" y2="1353.457"/><line style="stroke:#64748B;stroke-width:2.25;" x1="976.0291" x2="976.0291" y1="1353.457" y2="1413.457"/><polygon fill="#64748B" points="968.5291,1394.707,976.0291,1413.457,983.5291,1394.707,976.0291,1402.207" style="stroke:#64748B;stroke-width:1.875;"/><line style="stroke:#64748B;stroke-width:2.25;" x1="1346.9508" x2="1447.3169" y1="1353.457" y2="1353.457"/><line style="stroke:#64748B;stroke-width:2.25;" x1="1447.3169" x2="1447.3169" y1="1353.457" y2="1413.457"/><polygon fill="#64748B" points="1439.8169,1394.707,1447.3169,1413.457,1454.8169,1394.707,1447.3169,1402.207" style="stroke:#64748B;stroke-width:1.875;"/><line style="stroke:#64748B;stroke-width:2.25;" x1="1447.3169" x2="1447.3169" y1="1914.4482" y2="1923.8232"/><line style="stroke:#64748B;stroke-width:2.25;" x1="1447.3169" x2="1875.6253" y1="1923.8232" y2="1923.8232"/><line style="stroke:#64748B;stroke-width:2.25;" x1="1875.6253" x2="1875.6253" y1="1923.8232" y2="1951.9482"/><polygon fill="#64748B" points="1868.1253,1933.1982,1875.6253,1951.9482,1883.1253,1933.1982,1875.6253,1940.6982" style="stroke:#64748B;stroke-width:1.875;"/><line style="stroke:#64748B;stroke-width:2.25;" x1="1211.673" x2="1211.673" y1="1293.457" y2="1330.957"/><polygon fill="#64748B" points="1204.173,1312.207,1211.673,1330.957,1219.173,1312.207,1211.673,1319.707" style="stroke:#64748B;stroke-width:1.875;"/><line style="stroke:#64748B;stroke-width:2.25;" x1="463.9691" x2="463.9691" y1="435.9668" y2="445.3418"/><line style="stroke:#64748B;stroke-width:2.25;" x1="463.9691" x2="1211.673" y1="445.3418" y2="445.3418"/><line style="stroke:#64748B;stroke-width:2.25;" x1="1211.673" x2="1211.673" y1="445.3418" y2="473.4668"/><polygon fill="#64748B" points="1204.173,454.7168,1211.673,473.4668,1219.173,454.7168,1211.673,462.2168" style="stroke:#64748B;stroke-width:1.875;"/><line style="stroke:#64748B;stroke-width:2.25;" x1="1211.673" x2="1211.673" y1="691.9629" y2="701.3379"/><line style="stroke:#64748B;stroke-width:2.25;" x1="1211.673" x2="463.9691" y1="701.3379" y2="701.3379"/><line style="stroke:#64748B;stroke-width:2.25;" x1="463.9691" x2="463.9691" y1="701.3379" y2="729.4629"/><polygon fill="#64748B" points="456.4691,710.7129,463.9691,729.4629,471.4691,710.7129,463.9691,718.2129" style="stroke:#64748B;stroke-width:1.875;"/><line style="stroke:#64748B;stroke-width:2.25;" x1="463.9691" x2="463.9691" y1="793.4619" y2="802.8369"/><line style="stroke:#64748B;stroke-width:2.25;" x1="463.9691" x2="1211.673" y1="802.8369" y2="802.8369"/><line style="stroke:#64748B;stroke-width:2.25;" x1="1211.673" x2="1211.673" y1="802.8369" y2="830.9619"/><polygon fill="#64748B" points="1204.173,812.2119,1211.673,830.9619,1219.173,812.2119,1211.673,819.7119" style="stroke:#64748B;stroke-width:1.875;"/><line style="stroke:#64748B;stroke-width:2.25;" x1="1211.673" x2="1211.673" y1="921.46" y2="930.835"/><line style="stroke:#64748B;stroke-width:2.25;" x1="1211.673" x2="463.9691" y1="930.835" y2="930.835"/><line style="stroke:#64748B;stroke-width:2.25;" x1="463.9691" x2="463.9691" y1="930.835" y2="958.96"/><polygon fill="#64748B" points="456.4691,940.21,463.9691,958.96,471.4691,940.21,463.9691,947.71" style="stroke:#64748B;stroke-width:1.875;"/><line style="stroke:#64748B;stroke-width:2.25;" x1="976.0291" x2="976.0291" y1="1658.4521" y2="1689.6387"/><line style="stroke:#64748B;stroke-width:2.25;" x1="976.0291" x2="228.3252" y1="1689.6387" y2="1689.6387"/><line style="stroke:#64748B;stroke-width:2.25;" x1="228.3252" x2="228.3252" y1="1689.6387" y2="1722.4512"/><polygon fill="#64748B" points="220.8252,1703.7012,228.3252,1722.4512,235.8252,1703.7012,228.3252,1711.2012" style="stroke:#64748B;stroke-width:1.875;"/><line style="stroke:#64748B;stroke-width:2.25;" x1="1875.6253" x2="1875.6253" y1="2042.4463" y2="2051.8213"/><line style="stroke:#64748B;stroke-width:2.25;" x1="1875.6253" x2="463.9691" y1="2051.8213" y2="2051.8213"/><line style="stroke:#64748B;stroke-width:2.25;" x1="463.9691" x2="463.9691" y1="2051.8213" y2="2079.9463"/><polygon fill="#64748B" points="456.4691,2061.1963,463.9691,2079.9463,471.4691,2061.1963,463.9691,2068.6963" style="stroke:#64748B;stroke-width:1.875;"/><text fill="#000000" font-family="sans-serif" font-size="33.75" lengthAdjust="spacing" textLength="329.046" x="246.3501" y="125.9766">Ng&#432;&#7901;i nh&#7853;n y&#234;u c&#7847;u</text><text fill="#000000" font-family="sans-serif" font-size="33.75" lengthAdjust="spacing" textLength="150.5731" x="1171.3513" y="125.9766">H&#7879; th&#7889;ng</text><text fill="#000000" font-family="sans-serif" font-size="33.75" lengthAdjust="spacing" textLength="329.4415" x="1709.0295" y="125.9766">Ng&#432;&#7901;i &#273;&#259;ng y&#234;u c&#7847;u</text><?plantuml-src XLHTQnj757tVNt7hljZW5dqbagM78gqaHpWIQIk76FGoNgrt1qaps_rm8kf2Inu2JKFmGn_oK5fXqj8Iqtn1wIuq3sloF-QVzCx8icSjOVjXiUxSEVUSUy-TJpoVE1C2OpBbKGZ1n0u98qP8mx4DTRFVkT_fxq6pKz_-gjw5pw2V_jI5dOw8_-l2_VHxwDqHyQiUxAK_xe8fujztONtNp5SsOTVCRSblVcl3C88HPHxnoGI67eLy9QT50fSC-KFA73WWuy3MJlQ9DN9y7h6XoSVSXq_Rwa_B85P83sauXMyDWCPIUh7TQ9Vb2VU7jdyUBRGhkTktCDhcB3oFvSk5NB68iIOb4yw6ZHMLowsAbg0ZclboFT_0mwz3uYyW2vLo-LOJWwqBa8jGWooktYwLIvM6yPsc2R_OVShPN9HUQAjKBpOgMUg5Kh5Ggg-KtsYRxLO6k-xx_66sz9N3lakj4RE30FAV5mpZgETyV2sINoWmLyId3ARfNn5O8luZEZ82ATUeTaNoArYkIFwqW9qzPiw0hVNJLnCOKH5_c6XNrcf6jITnF1Yv4HoAv8srYVzo4P_W_ArqPhcR0nQwgg932GDvzey54uLkkHGyDpsj8R4x8da2ClEOEKT6zQw8NquLWbOFVx-3q1Vn3D53DvrHkDVgDJkzxG4xJ7-3CO9ZR5yap_LRGuwLqbFc0hkY_knOwgl9Siapf1w8-6yF7g5C3oIWIqNoc2bQJmTiI10YaA9qT1JmBs32YLUxeRzL4zEUCId-HQYTh92_8mjFK2k1RwAfI7v04duqbVcdYjg0wTnaCzxBdb2ccXhAIOLoTNDR6pVHeWUmteravSMfn7nZAVLFs1SR-DjciBwZQcoWDQjVHcGAOzLihIdXfKbgc1M4t3DiV09WtKpVgNiFv3pFYomngHas6zA3Qvinhvcrm2K2Mitd69ytE7G9HqwoeXDX4keIYVIQ5Bodc-ejM_XeXTWhR515Vzxi_NJ6TIES7QSd-96DFh46xC9h8_TIjUnBrLH3L85mgOi3be4aSe_a_iYRruvH4gFAkIZpfQLFGsUfsAmUpxBIxNJ6bfR6SdbcQbAHAqqgtPYPJ23PrqspTQ_VQfwlwCVN4MfEdg9V0Xn7zeO2kxjwYqV8wtd6RwelUcFxU15t7Rtymf9suTX0aVnC5MMN82QwOCx3mTfqiJPgafWQVz3KBjw6XIbxsOFiPlSMYxFA6GEch24Vhmlqp8hT-70yi3CpdBjSzypQtXKVpb7mWLPZ_Xy0?></g></svg>